<svg xmlns="http://www.w3.org/2000/svg" xmlns:xlink="http://www.w3.org/1999/xlink" width="80" zoomAndPan="magnify" viewBox="0 0 60 60" height="80" preserveAspectRatio="xMidYMid meet" version="1.0"><defs><clipPath id="80f86e02b8"><path d="M 0.382812 0 L 58 0 L 58 58 L 0.382812 58 Z M 0.382812 0 " clip-rule="nonzero"/></clipPath></defs><path fill="#ffffff" d="M 54.558594 28.265625 C 54.558594 29.074219 54.519531 29.882812 54.441406 30.6875 C 54.359375 31.492188 54.242188 32.292969 54.085938 33.085938 C 53.925781 33.878906 53.730469 34.664062 53.496094 35.4375 C 53.261719 36.210938 52.988281 36.972656 52.679688 37.71875 C 52.367188 38.46875 52.023438 39.199219 51.640625 39.914062 C 51.261719 40.625 50.84375 41.320312 50.394531 41.992188 C 49.945312 42.664062 49.464844 43.3125 48.949219 43.941406 C 48.4375 44.566406 47.894531 45.164062 47.320312 45.738281 C 46.75 46.308594 46.152344 46.851562 45.523438 47.363281 C 44.898438 47.878906 44.25 48.359375 43.578125 48.808594 C 42.90625 49.257812 42.210938 49.675781 41.496094 50.054688 C 40.785156 50.4375 40.054688 50.78125 39.304688 51.09375 C 38.558594 51.402344 37.796875 51.675781 37.023438 51.910156 C 36.25 52.144531 35.464844 52.339844 34.671875 52.5 C 33.875 52.65625 33.078125 52.773438 32.273438 52.855469 C 31.464844 52.933594 30.660156 52.972656 29.851562 52.972656 C 29.039062 52.972656 28.234375 52.933594 27.429688 52.855469 C 26.621094 52.773438 25.824219 52.65625 25.03125 52.5 C 24.234375 52.339844 23.453125 52.144531 22.675781 51.910156 C 21.902344 51.675781 21.140625 51.402344 20.394531 51.09375 C 19.648438 50.78125 18.917969 50.4375 18.203125 50.054688 C 17.488281 49.675781 16.796875 49.257812 16.121094 48.808594 C 15.449219 48.359375 14.800781 47.878906 14.175781 47.363281 C 13.550781 46.851562 12.949219 46.308594 12.378906 45.738281 C 11.804688 45.164062 11.261719 44.566406 10.75 43.941406 C 10.238281 43.3125 9.753906 42.664062 9.304688 41.992188 C 8.855469 41.320312 8.441406 40.625 8.058594 39.914062 C 7.675781 39.199219 7.332031 38.46875 7.023438 37.71875 C 6.710938 36.972656 6.441406 36.210938 6.207031 35.4375 C 5.96875 34.664062 5.773438 33.878906 5.617188 33.085938 C 5.457031 32.292969 5.339844 31.492188 5.261719 30.6875 C 5.179688 29.882812 5.140625 29.074219 5.140625 28.265625 C 5.140625 27.457031 5.179688 26.648438 5.261719 25.84375 C 5.339844 25.039062 5.457031 24.238281 5.617188 23.445312 C 5.773438 22.652344 5.96875 21.867188 6.207031 21.09375 C 6.441406 20.316406 6.710938 19.558594 7.023438 18.808594 C 7.332031 18.0625 7.675781 17.332031 8.058594 16.617188 C 8.441406 15.902344 8.855469 15.210938 9.304688 14.539062 C 9.753906 13.863281 10.238281 13.214844 10.75 12.589844 C 11.261719 11.964844 11.804688 11.367188 12.378906 10.792969 C 12.949219 10.222656 13.550781 9.679688 14.175781 9.164062 C 14.800781 8.652344 15.449219 8.167969 16.121094 7.71875 C 16.796875 7.269531 17.488281 6.855469 18.203125 6.472656 C 18.917969 6.09375 19.648438 5.746094 20.394531 5.4375 C 21.140625 5.128906 21.902344 4.855469 22.675781 4.621094 C 23.453125 4.386719 24.234375 4.1875 25.03125 4.03125 C 25.824219 3.871094 26.621094 3.753906 27.429688 3.675781 C 28.234375 3.597656 29.039062 3.554688 29.851562 3.554688 C 30.660156 3.554688 31.464844 3.597656 32.273438 3.675781 C 33.078125 3.753906 33.875 3.871094 34.671875 4.03125 C 35.464844 4.1875 36.25 4.386719 37.023438 4.621094 C 37.796875 4.855469 38.558594 5.128906 39.304688 5.4375 C 40.054688 5.746094 40.785156 6.09375 41.496094 6.472656 C 42.210938 6.855469 42.90625 7.269531 43.578125 7.71875 C 44.25 8.167969 44.898438 8.652344 45.523438 9.164062 C 46.152344 9.679688 46.75 10.222656 47.320312 10.792969 C 47.894531 11.367188 48.4375 11.964844 48.949219 12.589844 C 49.464844 13.214844 49.945312 13.863281 50.394531 14.539062 C 50.84375 15.210938 51.261719 15.902344 51.640625 16.617188 C 52.023438 17.332031 52.367188 18.0625 52.679688 18.808594 C 52.988281 19.558594 53.261719 20.316406 53.496094 21.09375 C 53.730469 21.867188 53.925781 22.652344 54.085938 23.445312 C 54.242188 24.238281 54.359375 25.039062 54.441406 25.84375 C 54.519531 26.648438 54.558594 27.457031 54.558594 28.265625 Z M 54.558594 28.265625 " fill-opacity="1" fill-rule="nonzero"/><g clip-path="url(#80f86e02b8)"><path fill="#5271ff" d="M 49.515625 9.722656 C 48.800781 8.953125 48.042969 8.226562 47.246094 7.542969 C 46.445312 6.859375 45.613281 6.21875 44.746094 5.625 C 43.875 5.035156 42.976562 4.492188 42.046875 4 C 41.117188 3.507812 40.164062 3.066406 39.1875 2.683594 C 38.207031 2.296875 37.210938 1.964844 36.195312 1.691406 C 35.183594 1.414062 34.15625 1.195312 33.117188 1.035156 C 32.078125 0.875 31.03125 0.769531 29.980469 0.726562 C 28.929688 0.683594 27.878906 0.695312 26.832031 0.765625 C 25.78125 0.839844 24.742188 0.96875 23.707031 1.15625 C 22.671875 1.34375 21.648438 1.589844 20.644531 1.890625 C 19.636719 2.195312 18.648438 2.550781 17.679688 2.960938 C 16.710938 3.371094 15.769531 3.835938 14.855469 4.351562 C 13.9375 4.871094 13.054688 5.433594 12.199219 6.050781 C 11.347656 6.664062 10.53125 7.324219 9.75 8.03125 C 8.972656 8.734375 8.234375 9.480469 7.535156 10.269531 C 6.839844 11.058594 6.1875 11.882812 5.582031 12.742188 C 4.960938 13.625 4.390625 14.539062 3.875 15.488281 C 1.796875 19.285156 0.652344 23.347656 0.441406 27.671875 C 0.417969 28.132812 0.40625 28.59375 0.40625 29.0625 C 0.40625 29.640625 0.425781 30.214844 0.457031 30.789062 C 0.492188 31.363281 0.542969 31.9375 0.613281 32.507812 C 0.683594 33.078125 0.769531 33.648438 0.871094 34.214844 C 0.976562 34.777344 1.097656 35.339844 1.234375 35.898438 C 1.375 36.457031 1.527344 37.011719 1.699219 37.5625 C 1.871094 38.113281 2.058594 38.65625 2.265625 39.191406 C 2.46875 39.730469 2.691406 40.261719 2.929688 40.785156 C 3.164062 41.308594 3.417969 41.828125 3.6875 42.335938 C 3.953125 42.84375 4.238281 43.34375 4.539062 43.835938 C 4.835938 44.328125 5.148438 44.8125 5.480469 45.285156 C 5.808594 45.757812 6.148438 46.21875 6.503906 46.671875 C 6.863281 47.121094 7.230469 47.5625 7.617188 47.992188 C 8 48.421875 8.394531 48.839844 8.804688 49.242188 C 9.210938 49.648438 9.632812 50.039062 10.066406 50.421875 C 10.496094 50.800781 10.941406 51.164062 11.394531 51.519531 C 11.851562 51.871094 12.316406 52.210938 12.792969 52.535156 C 13.265625 52.859375 13.75 53.167969 14.246094 53.460938 C 14.742188 53.757812 15.242188 54.035156 15.753906 54.300781 C 16.265625 54.566406 16.785156 54.8125 17.3125 55.046875 C 17.835938 55.277344 18.371094 55.496094 18.910156 55.695312 C 19.449219 55.894531 19.996094 56.078125 20.546875 56.246094 C 21.097656 56.414062 21.652344 56.5625 22.210938 56.695312 C 22.769531 56.828125 23.335938 56.945312 23.902344 57.042969 C 24.46875 57.144531 25.039062 57.222656 25.609375 57.289062 C 26.179688 57.351562 26.753906 57.398438 27.328125 57.429688 C 27.902344 57.457031 28.480469 57.46875 29.054688 57.464844 C 29.628906 57.457031 30.203125 57.4375 30.777344 57.394531 C 31.351562 57.355469 31.925781 57.296875 32.496094 57.222656 C 33.066406 57.144531 33.632812 57.054688 34.199219 56.941406 C 34.761719 56.832031 35.324219 56.707031 35.882812 56.5625 C 36.4375 56.417969 36.992188 56.257812 37.539062 56.078125 C 38.085938 55.902344 38.628906 55.707031 39.164062 55.496094 C 39.699219 55.285156 40.226562 55.058594 40.75 54.816406 C 41.269531 54.574219 41.785156 54.316406 42.289062 54.039062 C 42.796875 53.765625 43.292969 53.476562 43.78125 53.171875 C 44.269531 52.867188 44.75 52.550781 45.21875 52.214844 C 45.6875 51.882812 46.144531 51.535156 46.59375 51.171875 C 47.039062 50.8125 47.476562 50.4375 47.902344 50.050781 C 48.328125 49.660156 48.738281 49.261719 49.140625 48.847656 C 49.542969 48.433594 49.929688 48.007812 50.304688 47.574219 C 50.679688 47.136719 51.039062 46.6875 51.386719 46.230469 C 51.734375 45.769531 52.066406 45.300781 52.386719 44.824219 C 52.707031 44.34375 53.011719 43.855469 53.300781 43.359375 C 53.589844 42.863281 53.863281 42.355469 54.121094 41.839844 C 54.378906 41.328125 54.621094 40.804688 54.847656 40.277344 C 55.074219 39.746094 55.285156 39.210938 55.480469 38.671875 C 55.675781 38.128906 55.851562 37.582031 56.011719 37.03125 C 56.175781 36.476562 56.316406 35.921875 56.445312 35.359375 C 56.574219 34.796875 56.683594 34.234375 56.773438 33.664062 C 56.867188 33.097656 56.941406 32.527344 57 31.953125 C 57.058594 31.382812 57.097656 30.808594 57.121094 30.234375 C 57.144531 29.65625 57.152344 29.082031 57.140625 28.507812 C 57.125 27.933594 57.097656 27.359375 57.050781 26.785156 C 57.003906 26.210938 56.9375 25.640625 56.859375 25.070312 C 56.777344 24.5 56.675781 23.933594 56.5625 23.371094 C 56.445312 22.804688 56.3125 22.246094 56.160156 21.691406 C 56.011719 21.136719 55.84375 20.585938 55.660156 20.039062 C 55.476562 19.492188 55.277344 18.953125 55.058594 18.421875 C 54.84375 17.886719 54.609375 17.363281 54.363281 16.84375 C 54.113281 16.324219 53.847656 15.8125 53.570312 15.308594 C 53.289062 14.808594 52.996094 14.3125 52.683594 13.828125 C 52.375 13.34375 52.050781 12.867188 51.710938 12.402344 C 51.375 11.9375 51.023438 11.484375 50.65625 11.039062 C 50.289062 10.59375 49.910156 10.164062 49.515625 9.742188 Z M 37.972656 37.125 L 28.398438 45.1875 L 28.398438 36.734375 L 9.992188 36.734375 L 9.992188 21.398438 L 28.398438 21.398438 L 28.398438 12.945312 L 47.5625 29.0625 Z M 37.972656 37.125 " fill-opacity="1" fill-rule="nonzero"/></g></svg>