<svg xmlns="http://www.w3.org/2000/svg" xmlns:xlink="http://www.w3.org/1999/xlink" width="80" zoomAndPan="magnify" viewBox="0 0 60 60" height="80" preserveAspectRatio="xMidYMid meet" version="1.0"><path fill="#ffffff" d="M 31.757812 5.117188 C 30.9375 5.117188 30.121094 5.15625 29.304688 5.234375 C 28.488281 5.316406 27.679688 5.4375 26.875 5.597656 C 26.070312 5.757812 25.277344 5.957031 24.492188 6.191406 C 23.707031 6.429688 22.9375 6.707031 22.179688 7.019531 C 21.421875 7.335938 20.679688 7.683594 19.957031 8.070312 C 19.234375 8.457031 18.53125 8.878906 17.851562 9.332031 C 17.167969 9.789062 16.511719 10.277344 15.878906 10.796875 C 15.246094 11.316406 14.636719 11.867188 14.058594 12.445312 C 13.476562 13.027344 12.929688 13.632812 12.410156 14.265625 C 11.886719 14.902344 11.402344 15.558594 10.945312 16.238281 C 10.488281 16.921875 10.070312 17.625 9.683594 18.347656 C 9.296875 19.070312 8.945312 19.808594 8.632812 20.566406 C 8.316406 21.324219 8.042969 22.097656 7.804688 22.878906 C 7.566406 23.664062 7.367188 24.460938 7.207031 25.261719 C 7.046875 26.066406 6.925781 26.878906 6.847656 27.691406 C 6.765625 28.507812 6.726562 29.328125 6.726562 30.148438 C 6.726562 30.964844 6.765625 31.785156 6.847656 32.601562 C 6.925781 33.417969 7.046875 34.226562 7.207031 35.03125 C 7.367188 35.835938 7.566406 36.628906 7.804688 37.414062 C 8.042969 38.199219 8.316406 38.96875 8.632812 39.726562 C 8.945312 40.484375 9.296875 41.222656 9.683594 41.945312 C 10.070312 42.667969 10.488281 43.371094 10.945312 44.054688 C 11.402344 44.734375 11.886719 45.394531 12.410156 46.027344 C 12.929688 46.660156 13.476562 47.265625 14.058594 47.847656 C 14.636719 48.425781 15.246094 48.976562 15.878906 49.496094 C 16.511719 50.015625 17.167969 50.503906 17.851562 50.960938 C 18.53125 51.414062 19.234375 51.835938 19.957031 52.222656 C 20.679688 52.609375 21.421875 52.960938 22.179688 53.273438 C 22.9375 53.585938 23.707031 53.863281 24.492188 54.101562 C 25.277344 54.339844 26.070312 54.539062 26.875 54.695312 C 27.679688 54.855469 28.488281 54.976562 29.304688 55.058594 C 30.121094 55.136719 30.9375 55.179688 31.757812 55.179688 C 32.578125 55.179688 33.394531 55.136719 34.210938 55.058594 C 35.027344 54.976562 35.835938 54.855469 36.640625 54.695312 C 37.445312 54.539062 38.238281 54.339844 39.023438 54.101562 C 39.808594 53.863281 40.578125 53.585938 41.335938 53.273438 C 42.09375 52.960938 42.835938 52.609375 43.558594 52.222656 C 44.28125 51.835938 44.984375 51.414062 45.664062 50.960938 C 46.347656 50.503906 47.003906 50.015625 47.636719 49.496094 C 48.269531 48.976562 48.878906 48.425781 49.457031 47.847656 C 50.039062 47.265625 50.585938 46.660156 51.105469 46.027344 C 51.628906 45.394531 52.113281 44.734375 52.570312 44.054688 C 53.027344 43.371094 53.445312 42.667969 53.832031 41.945312 C 54.21875 41.222656 54.570312 40.484375 54.882812 39.726562 C 55.199219 38.96875 55.472656 38.199219 55.710938 37.414062 C 55.949219 36.628906 56.148438 35.835938 56.308594 35.03125 C 56.46875 34.226562 56.589844 33.417969 56.667969 32.601562 C 56.75 31.785156 56.789062 30.964844 56.789062 30.148438 C 56.789062 29.328125 56.75 28.507812 56.667969 27.691406 C 56.589844 26.878906 56.46875 26.066406 56.308594 25.261719 C 56.148438 24.460938 55.949219 23.664062 55.710938 22.878906 C 55.472656 22.097656 55.199219 21.324219 54.882812 20.566406 C 54.570312 19.808594 54.21875 19.070312 53.832031 18.347656 C 53.445312 17.625 53.027344 16.921875 52.570312 16.238281 C 52.113281 15.558594 51.628906 14.902344 51.105469 14.265625 C 50.585938 13.632812 50.039062 13.027344 49.457031 12.445312 C 48.878906 11.867188 48.269531 11.316406 47.636719 10.796875 C 47.003906 10.277344 46.347656 9.789062 45.664062 9.332031 C 44.984375 8.878906 44.28125 8.457031 43.558594 8.070312 C 42.835938 7.683594 42.09375 7.335938 41.335938 7.019531 C 40.578125 6.707031 39.808594 6.429688 39.023438 6.191406 C 38.238281 5.957031 37.445312 5.757812 36.640625 5.597656 C 35.835938 5.4375 35.027344 5.316406 34.210938 5.234375 C 33.394531 5.15625 32.578125 5.117188 31.757812 5.117188 Z M 31.757812 5.117188 " fill-opacity="1" fill-rule="nonzero"/><path fill="#5271ff" d="M 50.539062 10.222656 C 51.320312 10.949219 52.058594 11.71875 52.75 12.523438 C 53.445312 13.332031 54.089844 14.175781 54.691406 15.058594 C 55.292969 15.9375 55.839844 16.847656 56.339844 17.789062 C 56.839844 18.730469 57.285156 19.699219 57.675781 20.6875 C 58.066406 21.679688 58.402344 22.6875 58.679688 23.71875 C 58.957031 24.746094 59.179688 25.785156 59.34375 26.839844 C 59.507812 27.890625 59.609375 28.949219 59.65625 30.015625 C 59.699219 31.078125 59.6875 32.140625 59.613281 33.203125 C 59.542969 34.269531 59.410156 35.324219 59.21875 36.371094 C 59.027344 37.417969 58.78125 38.453125 58.476562 39.472656 C 58.167969 40.496094 57.808594 41.496094 57.390625 42.476562 C 56.976562 43.457031 56.503906 44.410156 55.980469 45.339844 C 55.457031 46.265625 54.886719 47.164062 54.261719 48.027344 C 53.640625 48.890625 52.972656 49.71875 52.257812 50.507812 C 51.542969 51.296875 50.785156 52.046875 49.988281 52.753906 C 49.191406 53.457031 48.355469 54.117188 47.484375 54.730469 C 46.589844 55.359375 45.664062 55.9375 44.703125 56.460938 C 40.855469 58.566406 36.742188 59.726562 32.359375 59.941406 C 31.894531 59.960938 31.421875 59.972656 30.949219 59.972656 C 30.367188 59.972656 29.78125 59.957031 29.199219 59.921875 C 28.621094 59.886719 28.039062 59.835938 27.460938 59.765625 C 26.882812 59.695312 26.304688 59.609375 25.730469 59.503906 C 25.160156 59.398438 24.589844 59.273438 24.023438 59.136719 C 23.457031 58.996094 22.894531 58.839844 22.339844 58.664062 C 21.78125 58.492188 21.230469 58.300781 20.6875 58.09375 C 20.140625 57.886719 19.605469 57.660156 19.074219 57.421875 C 18.542969 57.179688 18.019531 56.925781 17.503906 56.652344 C 16.988281 56.378906 16.480469 56.09375 15.980469 55.789062 C 15.484375 55.488281 14.996094 55.167969 14.515625 54.835938 C 14.039062 54.503906 13.570312 54.15625 13.113281 53.796875 C 12.65625 53.433594 12.207031 53.058594 11.773438 52.671875 C 11.339844 52.285156 10.914062 51.882812 10.503906 51.46875 C 10.09375 51.054688 9.699219 50.628906 9.3125 50.191406 C 8.929688 49.753906 8.558594 49.300781 8.199219 48.839844 C 7.84375 48.382812 7.5 47.910156 7.171875 47.429688 C 6.84375 46.945312 6.53125 46.457031 6.230469 45.953125 C 5.933594 45.453125 5.648438 44.945312 5.382812 44.425781 C 5.113281 43.910156 4.863281 43.382812 4.628906 42.851562 C 4.390625 42.316406 4.171875 41.777344 3.96875 41.230469 C 3.765625 40.683594 3.582031 40.132812 3.410156 39.574219 C 3.242188 39.015625 3.089844 38.453125 2.957031 37.886719 C 2.820312 37.320312 2.703125 36.746094 2.601562 36.171875 C 2.503906 35.597656 2.421875 35.023438 2.355469 34.441406 C 2.289062 33.863281 2.242188 33.28125 2.210938 32.699219 C 2.183594 32.117188 2.171875 31.535156 2.175781 30.953125 C 2.183594 30.371094 2.207031 29.789062 2.246094 29.207031 C 2.289062 28.625 2.347656 28.042969 2.421875 27.46875 C 2.5 26.890625 2.59375 26.3125 2.707031 25.742188 C 2.816406 25.167969 2.945312 24.601562 3.089844 24.035156 C 3.238281 23.472656 3.402344 22.914062 3.582031 22.359375 C 3.761719 21.804688 3.957031 21.253906 4.171875 20.710938 C 4.382812 20.171875 4.613281 19.636719 4.859375 19.105469 C 5.105469 18.578125 5.367188 18.058594 5.644531 17.542969 C 5.921875 17.03125 6.214844 16.527344 6.523438 16.035156 C 6.832031 15.539062 7.15625 15.054688 7.492188 14.578125 C 7.832031 14.105469 8.183594 13.640625 8.550781 13.1875 C 8.917969 12.730469 9.296875 12.289062 9.6875 11.859375 C 10.082031 11.429688 10.488281 11.011719 10.90625 10.605469 C 11.324219 10.199219 11.753906 9.804688 12.199219 9.425781 C 12.640625 9.046875 13.09375 8.679688 13.558594 8.328125 C 14.023438 7.976562 14.496094 7.640625 14.984375 7.316406 C 15.46875 6.992188 15.960938 6.683594 16.464844 6.390625 C 16.96875 6.097656 17.484375 5.820312 18.003906 5.558594 C 18.523438 5.296875 19.054688 5.050781 19.589844 4.820312 C 20.125 4.589844 20.667969 4.378906 21.214844 4.179688 C 21.765625 3.984375 22.320312 3.804688 22.878906 3.640625 C 23.4375 3.480469 24.003906 3.332031 24.570312 3.203125 C 25.140625 3.074219 25.710938 2.964844 26.285156 2.871094 C 26.863281 2.777344 27.441406 2.699219 28.019531 2.640625 C 28.601562 2.582031 29.179688 2.542969 29.765625 2.519531 C 30.347656 2.496094 30.929688 2.488281 31.511719 2.5 C 32.09375 2.515625 32.675781 2.542969 33.257812 2.589844 C 33.839844 2.640625 34.417969 2.703125 34.996094 2.785156 C 35.570312 2.871094 36.144531 2.96875 36.71875 3.085938 C 37.289062 3.207031 37.855469 3.339844 38.417969 3.492188 C 38.980469 3.644531 39.539062 3.8125 40.089844 4 C 40.644531 4.1875 41.1875 4.390625 41.730469 4.609375 C 42.269531 4.828125 42.800781 5.0625 43.328125 5.316406 C 43.855469 5.566406 44.371094 5.835938 44.882812 6.117188 C 45.390625 6.402344 45.890625 6.699219 46.382812 7.011719 C 46.875 7.328125 47.355469 7.65625 47.828125 8 C 48.296875 8.34375 48.757812 8.699219 49.207031 9.070312 C 49.65625 9.441406 50.097656 9.824219 50.523438 10.222656 Z M 22.78125 21.917969 L 14.617188 31.617188 L 23.179688 31.617188 L 23.179688 50.261719 L 38.714844 50.261719 L 38.714844 31.617188 L 47.277344 31.617188 L 30.949219 12.203125 Z M 22.78125 21.917969 " fill-opacity="1" fill-rule="nonzero"/></svg>