<svg xmlns="http://www.w3.org/2000/svg" xmlns:xlink="http://www.w3.org/1999/xlink" width="500" zoomAndPan="magnify" viewBox="0 0 375 374.999991" height="500" preserveAspectRatio="xMidYMid meet" version="1.0"><defs><g/><clipPath id="c9fff820e0"><path d="M 110 86 L 161 86 L 161 148 L 110 148 Z M 110 86 " clip-rule="nonzero"/></clipPath><clipPath id="2129872fec"><path d="M 90.5 188.449219 L 122.238281 85.21875 L 244.828125 122.910156 L 213.085938 226.140625 Z M 90.5 188.449219 " clip-rule="nonzero"/></clipPath><clipPath id="e17187e8e1"><path d="M 90.5 188.449219 L 122.238281 85.21875 L 244.828125 122.910156 L 213.085938 226.140625 Z M 90.5 188.449219 " clip-rule="nonzero"/></clipPath><clipPath id="3d8a8c726c"><path d="M 90.5 188.449219 L 122.238281 85.21875 L 244.828125 122.910156 L 213.085938 226.140625 Z M 90.5 188.449219 " clip-rule="nonzero"/></clipPath><clipPath id="637e0b3e04"><path d="M 143 145 L 218 145 L 218 221 L 143 221 Z M 143 145 " clip-rule="nonzero"/></clipPath><clipPath id="cc3d9a98eb"><path d="M 90.5 188.449219 L 122.238281 85.21875 L 244.828125 122.910156 L 213.085938 226.140625 Z M 90.5 188.449219 " clip-rule="nonzero"/></clipPath><clipPath id="9bbbe85785"><path d="M 90.5 188.449219 L 122.238281 85.21875 L 244.828125 122.910156 L 213.085938 226.140625 Z M 90.5 188.449219 " clip-rule="nonzero"/></clipPath><clipPath id="fcb775c9a5"><path d="M 90.5 188.449219 L 122.238281 85.21875 L 244.828125 122.910156 L 213.085938 226.140625 Z M 90.5 188.449219 " clip-rule="nonzero"/></clipPath><clipPath id="cc423aa400"><path d="M 136.054688 187.5 L 244.808594 187.5 L 244.808594 204.152344 L 136.054688 204.152344 Z M 136.054688 187.5 " clip-rule="nonzero"/></clipPath></defs><g fill="#939090" fill-opacity="1"><g transform="translate(100.675779, 170.988037)"><g><path d="M 1.984375 -22.578125 C 1.890625 -22.628906 1.910156 -22.65625 2.046875 -22.65625 C 2.273438 -22.695312 3.429688 -22.71875 5.515625 -22.71875 L 9.203125 -22.71875 L 9.25 -17.875 L 9.25 -12.84375 L 9.640625 -13.34375 C 11.460938 -15.757812 12.9375 -17.71875 14.0625 -19.21875 C 15.195312 -20.71875 16 -21.804688 16.46875 -22.484375 L 16.640625 -22.71875 L 25.234375 -22.71875 L 25.078125 -22.546875 C 24.671875 -22.097656 23.941406 -21.285156 22.890625 -20.109375 C 21.835938 -18.929688 20.457031 -17.359375 18.75 -15.390625 C 17.050781 -13.421875 15.546875 -11.664062 14.234375 -10.125 C 12.921875 -8.59375 11.796875 -7.269531 10.859375 -6.15625 L 9.203125 -4.203125 L 9.203125 2.546875 L 2.625 2.546875 L 2.625 -9.953125 C 2.625 -14.023438 2.617188 -17.046875 2.609375 -19.015625 C 2.597656 -20.992188 2.566406 -22.015625 2.515625 -22.078125 C 2.410156 -22.328125 2.234375 -22.492188 1.984375 -22.578125 Z M 14.484375 -9.109375 C 16.003906 -10.859375 16.8125 -11.734375 16.90625 -11.734375 C 16.925781 -11.679688 16.976562 -11.582031 17.0625 -11.4375 C 17.15625 -11.289062 17.296875 -11.070312 17.484375 -10.78125 C 17.585938 -10.601562 17.847656 -10.15625 18.265625 -9.4375 C 18.679688 -8.726562 19.160156 -7.882812 19.703125 -6.90625 C 20.253906 -5.925781 20.84375 -4.890625 21.46875 -3.796875 C 22.101562 -2.703125 22.675781 -1.6875 23.1875 -0.75 C 23.707031 0.175781 24.140625 0.945312 24.484375 1.5625 C 24.828125 2.175781 25 2.503906 25 2.546875 C 25 2.597656 23.664062 2.597656 21 2.546875 L 17 2.546875 L 16.171875 1.015625 C 15.804688 0.359375 15.394531 -0.382812 14.9375 -1.21875 C 14.476562 -2.0625 13.957031 -3.007812 13.375 -4.0625 C 12.59375 -5.5 12.203125 -6.226562 12.203125 -6.25 C 12.203125 -6.289062 12.960938 -7.242188 14.484375 -9.109375 Z M 14.484375 -9.109375 "/></g></g></g><g fill="#939090" fill-opacity="1"><g transform="translate(126.991879, 170.988037)"><g><path d="M 1.375 -22.578125 L 1.078125 -22.71875 L 9.40625 -22.71875 L 9.4375 -13.71875 L 9.4375 -4.84375 L 9.640625 -4.328125 C 9.953125 -3.328125 10.75 -2.625 12.03125 -2.21875 C 12.320312 -2.195312 12.46875 -2.117188 12.46875 -1.984375 C 12.46875 -1.941406 12.46875 -1.71875 12.46875 -1.3125 C 12.46875 -0.90625 12.457031 -0.320312 12.4375 0.4375 L 12.4375 2.75 C 11.5 2.75 10.554688 2.703125 9.609375 2.609375 C 8.671875 2.523438 7.773438 2.238281 6.921875 1.75 C 5.929688 1.28125 5.070312 0.632812 4.34375 -0.1875 C 3.625 -1.019531 3.09375 -1.953125 2.75 -2.984375 C 2.664062 -3.304688 2.59375 -3.628906 2.53125 -3.953125 C 2.476562 -4.273438 2.441406 -4.625 2.421875 -5 C 2.398438 -5.363281 2.382812 -6.207031 2.375 -7.53125 C 2.363281 -8.851562 2.359375 -10.632812 2.359375 -12.875 L 2.359375 -14.484375 C 2.378906 -16.296875 2.382812 -17.738281 2.375 -18.8125 C 2.363281 -19.894531 2.34375 -20.59375 2.3125 -20.90625 C 2.289062 -21.488281 2.179688 -21.890625 1.984375 -22.109375 C 1.785156 -22.316406 1.582031 -22.472656 1.375 -22.578125 Z M 14.984375 -22.625 C 14.898438 -22.644531 14.925781 -22.675781 15.0625 -22.71875 L 23.421875 -22.71875 L 23.421875 -13.984375 C 23.421875 -11.160156 23.414062 -8.984375 23.40625 -7.453125 C 23.394531 -5.929688 23.378906 -5.082031 23.359375 -4.90625 C 23.222656 -3.738281 22.898438 -2.675781 22.390625 -1.71875 C 21.890625 -0.769531 21.25 0.0234375 20.46875 0.671875 C 19.6875 1.316406 18.789062 1.816406 17.78125 2.171875 C 16.769531 2.535156 15.691406 2.71875 14.546875 2.71875 L 13.375 2.71875 L 13.40625 0.203125 L 13.40625 -2.21875 L 13.640625 -2.25 C 14.242188 -2.363281 14.789062 -2.671875 15.28125 -3.171875 C 15.78125 -3.679688 16.128906 -4.28125 16.328125 -4.96875 C 16.398438 -5.238281 16.4375 -7.953125 16.4375 -13.109375 C 16.4375 -18.347656 16.398438 -21.070312 16.328125 -21.28125 C 16.128906 -21.90625 15.679688 -22.351562 14.984375 -22.625 Z M 14.984375 -22.625 "/></g></g></g><g fill="#939090" fill-opacity="1"><g transform="translate(152.770232, 170.988037)"><g><path d="M 9.40625 -12.0625 L 11.359375 -12.0625 C 11.921875 -12.0625 12.367188 -12.066406 12.703125 -12.078125 C 13.035156 -12.085938 13.269531 -12.109375 13.40625 -12.140625 C 13.65625 -12.160156 13.96875 -12.257812 14.34375 -12.4375 C 14.820312 -12.6875 15.171875 -13.054688 15.390625 -13.546875 C 15.703125 -14.242188 15.757812 -14.984375 15.5625 -15.765625 C 15.363281 -16.585938 14.90625 -17.132812 14.1875 -17.40625 L 13.84375 -17.609375 L 11.625 -17.640625 L 10.15625 -17.640625 L 10.15625 -22.71875 C 11.289062 -22.71875 12.210938 -22.71875 12.921875 -22.71875 C 13.628906 -22.71875 14.179688 -22.71875 14.578125 -22.71875 C 14.984375 -22.71875 15.273438 -22.710938 15.453125 -22.703125 C 15.640625 -22.691406 15.765625 -22.6875 15.828125 -22.6875 C 17.734375 -22.53125 19.253906 -21.984375 20.390625 -21.046875 C 21.535156 -20.117188 22.289062 -18.707031 22.65625 -16.8125 C 22.945312 -14.96875 22.738281 -13.429688 22.03125 -12.203125 C 21.320312 -10.972656 20.195312 -10.234375 18.65625 -9.984375 L 18.1875 -9.953125 L 18.625 -9.84375 C 20.101562 -9.625 21.109375 -8.894531 21.640625 -7.65625 C 21.796875 -7.34375 21.925781 -6.882812 22.03125 -6.28125 C 22.132812 -5.675781 22.226562 -4.90625 22.3125 -3.96875 C 22.582031 -0.46875 22.71875 1.625 22.71875 2.3125 L 22.71875 2.546875 L 15.59375 2.546875 L 15.53125 2.25 C 15.507812 2.113281 15.488281 1.882812 15.46875 1.5625 C 15.457031 1.238281 15.429688 0.832031 15.390625 0.34375 C 15.191406 -3.351562 14.925781 -5.5625 14.59375 -6.28125 C 14.476562 -6.507812 14.09375 -6.691406 13.4375 -6.828125 C 13.195312 -6.867188 12.445312 -6.910156 11.1875 -6.953125 L 9.40625 -6.953125 L 9.40625 2.546875 L 2.59375 2.546875 L 2.59375 -9.671875 C 2.613281 -12.628906 2.617188 -14.984375 2.609375 -16.734375 C 2.597656 -18.484375 2.59375 -19.660156 2.59375 -20.265625 C 2.539062 -21.410156 2.492188 -22.023438 2.453125 -22.109375 C 2.335938 -22.378906 2.160156 -22.570312 1.921875 -22.6875 C 2.054688 -22.6875 2.210938 -22.6875 2.390625 -22.6875 C 2.566406 -22.6875 2.769531 -22.691406 3 -22.703125 C 3.238281 -22.710938 3.515625 -22.71875 3.828125 -22.71875 L 9.40625 -22.71875 Z M 9.40625 -12.0625 "/></g></g></g><g fill="#939090" fill-opacity="1"><g transform="translate(177.674748, 170.988037)"><g><path d="M 6.796875 -22.625 C 6.722656 -22.644531 6.742188 -22.664062 6.859375 -22.6875 C 7.015625 -22.707031 7.488281 -22.71875 8.28125 -22.71875 C 9.082031 -22.71875 10.140625 -22.71875 11.453125 -22.71875 L 16.5 -22.71875 L 16.734375 -22.046875 C 16.847656 -21.578125 17.050781 -20.875 17.34375 -19.9375 C 17.519531 -19.351562 17.664062 -18.859375 17.78125 -18.453125 C 17.894531 -18.046875 17.972656 -17.734375 18.015625 -17.515625 C 18.035156 -17.378906 18.203125 -16.796875 18.515625 -15.765625 C 18.828125 -14.753906 19.0625 -13.945312 19.21875 -13.34375 C 19.46875 -12.507812 19.703125 -11.703125 19.921875 -10.921875 C 20.148438 -10.140625 20.378906 -9.390625 20.609375 -8.671875 C 20.648438 -8.515625 20.703125 -8.316406 20.765625 -8.078125 C 20.835938 -7.847656 20.929688 -7.578125 21.046875 -7.265625 C 21.128906 -6.953125 21.191406 -6.695312 21.234375 -6.5 C 21.285156 -6.3125 21.320312 -6.179688 21.34375 -6.109375 C 21.363281 -6.066406 21.390625 -5.96875 21.421875 -5.8125 C 21.453125 -5.65625 21.515625 -5.453125 21.609375 -5.203125 C 21.785156 -4.691406 21.882812 -4.335938 21.90625 -4.140625 C 21.9375 -4.066406 21.972656 -3.941406 22.015625 -3.765625 C 22.054688 -3.585938 22.101562 -3.398438 22.15625 -3.203125 C 22.21875 -3.015625 22.273438 -2.84375 22.328125 -2.6875 C 22.390625 -2.53125 22.421875 -2.429688 22.421875 -2.390625 C 22.441406 -2.367188 22.519531 -2.109375 22.65625 -1.609375 C 22.675781 -1.523438 22.722656 -1.34375 22.796875 -1.0625 C 22.878906 -0.78125 22.960938 -0.5 23.046875 -0.21875 C 23.140625 0.0625 23.21875 0.316406 23.28125 0.546875 C 23.351562 0.785156 23.398438 0.914062 23.421875 0.9375 C 23.421875 1.03125 23.453125 1.1875 23.515625 1.40625 C 23.585938 1.632812 23.644531 1.78125 23.6875 1.84375 C 23.71875 1.976562 23.742188 2.097656 23.765625 2.203125 C 23.785156 2.304688 23.804688 2.390625 23.828125 2.453125 C 23.847656 2.472656 23.816406 2.492188 23.734375 2.515625 C 23.640625 2.535156 23.328125 2.546875 22.796875 2.546875 C 22.273438 2.546875 21.578125 2.546875 20.703125 2.546875 L 17.234375 2.546875 L 17.109375 2.15625 C 17.066406 2.039062 17.019531 1.898438 16.96875 1.734375 C 16.925781 1.566406 16.882812 1.367188 16.84375 1.140625 C 16.84375 1.097656 16.816406 1 16.765625 0.84375 C 16.722656 0.6875 16.671875 0.484375 16.609375 0.234375 C 16.515625 -0.015625 16.4375 -0.242188 16.375 -0.453125 C 16.320312 -0.660156 16.273438 -0.859375 16.234375 -1.046875 L 15.828125 -2.65625 L 8.234375 -2.65625 L 8.171875 -2.421875 C 7.960938 -1.703125 7.773438 -1.015625 7.609375 -0.359375 C 7.441406 0.285156 7.289062 0.882812 7.15625 1.4375 L 6.859375 2.546875 L 3.421875 2.546875 C 2.523438 2.523438 1.8125 2.507812 1.28125 2.5 C 0.757812 2.488281 0.5 2.472656 0.5 2.453125 C 1.15625 0.410156 1.769531 -1.628906 2.34375 -3.671875 C 2.925781 -5.722656 3.5 -7.789062 4.0625 -9.875 C 4.0625 -9.925781 4.101562 -10.101562 4.1875 -10.40625 C 4.28125 -10.707031 4.351562 -10.945312 4.40625 -11.125 C 4.519531 -11.457031 4.617188 -11.789062 4.703125 -12.125 C 4.796875 -12.46875 4.882812 -12.816406 4.96875 -13.171875 C 5.0625 -13.484375 5.15625 -13.828125 5.25 -14.203125 C 5.351562 -14.585938 5.472656 -15.003906 5.609375 -15.453125 C 5.628906 -15.523438 5.660156 -15.65625 5.703125 -15.84375 C 5.753906 -16.03125 5.804688 -16.226562 5.859375 -16.4375 C 5.921875 -16.65625 5.976562 -16.859375 6.03125 -17.046875 C 6.082031 -17.242188 6.109375 -17.363281 6.109375 -17.40625 C 6.160156 -17.519531 6.207031 -17.65625 6.25 -17.8125 C 6.289062 -17.96875 6.347656 -18.160156 6.421875 -18.390625 C 6.535156 -18.835938 6.601562 -19.09375 6.625 -19.15625 C 6.664062 -19.269531 6.710938 -19.457031 6.765625 -19.71875 C 6.828125 -19.988281 6.914062 -20.328125 7.03125 -20.734375 C 7.207031 -21.273438 7.296875 -21.613281 7.296875 -21.75 C 7.296875 -22.144531 7.128906 -22.4375 6.796875 -22.625 Z M 12.46875 -15.390625 C 12.195312 -16.460938 12.039062 -17 12 -17 C 11.957031 -16.875 11.859375 -16.453125 11.703125 -15.734375 C 11.648438 -15.546875 11.585938 -15.300781 11.515625 -15 C 11.453125 -14.695312 11.367188 -14.320312 11.265625 -13.875 C 11.210938 -13.738281 11.128906 -13.425781 11.015625 -12.9375 C 10.910156 -12.445312 10.789062 -11.929688 10.65625 -11.390625 C 10.476562 -10.765625 10.296875 -10.082031 10.109375 -9.34375 C 9.890625 -8.445312 9.78125 -7.960938 9.78125 -7.890625 C 9.78125 -7.847656 10.550781 -7.828125 12.09375 -7.828125 L 14.421875 -7.828125 L 14.34375 -8.171875 C 14.164062 -8.890625 13.921875 -9.847656 13.609375 -11.046875 C 13.296875 -12.242188 12.914062 -13.691406 12.46875 -15.390625 Z M 12.46875 -15.390625 "/></g></g></g><g fill="#939090" fill-opacity="1"><g transform="translate(202.041507, 170.988037)"><g><path d="M 0.671875 -22.71875 L 20.46875 -22.71875 L 20.46875 -17.578125 L 0.671875 -17.578125 Z M 6.921875 -16.40625 L 6.75 -16.5625 L 14.015625 -16.5625 L 14.015625 2.546875 L 7.21875 2.546875 L 7.21875 -6.59375 C 7.21875 -9.726562 7.21875 -12.082031 7.21875 -13.65625 C 7.21875 -15.238281 7.207031 -16.050781 7.1875 -16.09375 C 7.164062 -16.1875 7.078125 -16.289062 6.921875 -16.40625 Z M 6.921875 -16.40625 "/></g></g></g><g fill="#939090" fill-opacity="1"><g transform="translate(223.181776, 170.988037)"><g><path d="M 13.34375 -22.921875 L 13.875 -22.921875 C 14.976562 -22.921875 16.046875 -22.769531 17.078125 -22.46875 C 18.109375 -22.164062 19.046875 -21.722656 19.890625 -21.140625 C 20.742188 -20.554688 21.484375 -19.835938 22.109375 -18.984375 C 22.742188 -18.140625 23.207031 -17.164062 23.5 -16.0625 C 23.582031 -15.6875 23.644531 -15.367188 23.6875 -15.109375 C 23.738281 -14.847656 23.765625 -14.640625 23.765625 -14.484375 L 23.765625 -14.28125 L 17.109375 -14.28125 L 16.96875 -14.625 C 16.832031 -15.070312 16.625 -15.53125 16.34375 -16 C 16.070312 -16.46875 15.773438 -16.800781 15.453125 -17 C 14.984375 -17.40625 14.347656 -17.65625 13.546875 -17.75 L 13.34375 -17.78125 Z M 11.828125 -22.890625 C 11.867188 -22.910156 12.003906 -22.921875 12.234375 -22.921875 L 12.46875 -22.921875 L 12.46875 -17.875 L 12.140625 -17.75 C 11.484375 -17.5 10.894531 -17.039062 10.375 -16.375 C 9.863281 -15.71875 9.453125 -14.882812 9.140625 -13.875 C 8.960938 -13.320312 8.835938 -12.679688 8.765625 -11.953125 C 8.703125 -11.222656 8.691406 -10.429688 8.734375 -9.578125 C 8.753906 -9.035156 8.8125 -8.414062 8.90625 -7.71875 C 9 -7.03125 9.144531 -6.351562 9.34375 -5.6875 C 9.539062 -5.03125 9.8125 -4.425781 10.15625 -3.875 C 10.507812 -3.332031 10.96875 -2.925781 11.53125 -2.65625 C 11.644531 -2.613281 11.757812 -2.570312 11.875 -2.53125 C 12 -2.5 12.117188 -2.460938 12.234375 -2.421875 L 12.53125 -2.359375 L 12.53125 2.75 L 12 2.71875 C 8.945312 2.539062 6.554688 1.597656 4.828125 -0.109375 C 3.109375 -1.828125 2.046875 -4.132812 1.640625 -7.03125 C 1.617188 -7.25 1.597656 -7.523438 1.578125 -7.859375 C 1.554688 -8.203125 1.546875 -8.617188 1.546875 -9.109375 C 1.503906 -10.117188 1.503906 -10.878906 1.546875 -11.390625 C 1.835938 -14.484375 2.851562 -17.039062 4.59375 -19.0625 C 6.34375 -21.09375 8.753906 -22.367188 11.828125 -22.890625 Z M 17 -5.71875 L 17.109375 -5.953125 L 20.53125 -5.953125 C 22.800781 -5.992188 23.9375 -5.984375 23.9375 -5.921875 C 23.9375 -5.867188 23.898438 -5.617188 23.828125 -5.171875 C 23.609375 -3.921875 23.210938 -2.804688 22.640625 -1.828125 C 22.066406 -0.859375 21.351562 -0.0390625 20.5 0.625 C 19.644531 1.300781 18.675781 1.816406 17.59375 2.171875 C 16.507812 2.535156 15.335938 2.726562 14.078125 2.75 L 13.34375 2.796875 L 13.34375 -2.25 L 13.609375 -2.28125 C 14.484375 -2.394531 15.191406 -2.695312 15.734375 -3.1875 C 16.335938 -3.820312 16.757812 -4.664062 17 -5.71875 Z M 17 -5.71875 "/></g></g></g><g fill="#939090" fill-opacity="1"><g transform="translate(248.287949, 170.988037)"><g><path d="M 1.921875 -22.65625 C 2.140625 -22.65625 2.40625 -22.664062 2.71875 -22.6875 C 2.988281 -22.6875 3.320312 -22.691406 3.71875 -22.703125 C 4.125 -22.710938 4.597656 -22.71875 5.140625 -22.71875 L 9.375 -22.71875 L 9.375 2.546875 L 2.515625 2.546875 L 2.515625 -11.703125 C 2.515625 -14.335938 2.515625 -16.421875 2.515625 -17.953125 C 2.515625 -19.492188 2.503906 -20.488281 2.484375 -20.9375 C 2.460938 -21.8125 2.394531 -22.304688 2.28125 -22.421875 C 2.238281 -22.460938 2.21875 -22.484375 2.21875 -22.484375 C 2.082031 -22.578125 1.984375 -22.632812 1.921875 -22.65625 Z M 16.296875 -22.625 L 16.03125 -22.71875 L 23.5 -22.71875 L 23.5 2.546875 L 16.765625 2.546875 L 16.765625 -9.75 C 16.765625 -17.945312 16.734375 -22.113281 16.671875 -22.25 C 16.628906 -22.3125 16.578125 -22.375 16.515625 -22.4375 C 16.460938 -22.507812 16.390625 -22.570312 16.296875 -22.625 Z M 10.15625 -13.28125 L 16 -13.28125 L 16 -8.140625 L 10.15625 -8.140625 Z M 10.15625 -13.28125 "/></g></g></g><g clip-path="url(#c9fff820e0)"><g clip-path="url(#2129872fec)"><g clip-path="url(#e17187e8e1)"><g clip-path="url(#3d8a8c726c)"><path fill="#939090" d="M 123.316406 86.363281 C 121.734375 86.882812 123.078125 94.925781 123.242188 95.890625 C 124.070312 100.867188 125.578125 104.859375 126.847656 107.644531 C 125.195312 109.34375 123.546875 111.046875 121.894531 112.75 C 121.6875 112.1875 121.476562 111.628906 121.269531 111.070312 C 120.859375 111.222656 120.269531 111.496094 119.671875 111.988281 C 118.957031 112.574219 118.539062 113.210938 118.3125 113.625 C 118.546875 114.144531 118.785156 114.667969 119.023438 115.1875 C 116.230469 118.214844 113.441406 121.238281 110.652344 124.265625 C 110.644531 124.28125 110.640625 124.300781 110.632812 124.320312 C 110.695312 126.605469 111.1875 128.855469 111.523438 131.117188 C 115.558594 127.488281 119.59375 123.863281 123.628906 120.234375 L 124.125 121.238281 C 124.34375 121.054688 124.5625 120.875 124.777344 120.691406 C 124.710938 120.253906 124.644531 119.816406 124.582031 119.378906 C 126.023438 118.082031 127.46875 116.78125 128.910156 115.484375 L 138.207031 137.214844 C 136.730469 138.859375 135.257812 140.5 133.785156 142.144531 C 133.878906 143.816406 133.972656 145.488281 134.066406 147.160156 L 140.78125 141.308594 C 141.164062 141.945312 141.550781 142.582031 141.933594 143.21875 C 142.117188 143.15625 142.304688 143.089844 142.488281 143.027344 C 142.457031 142.320312 142.425781 141.613281 142.394531 140.910156 C 145.128906 141.386719 147.859375 141.867188 150.59375 142.347656 C 149.839844 140.882812 149.085938 139.417969 148.332031 137.953125 C 146.117188 137.320312 143.90625 136.683594 141.695312 136.046875 L 136.171875 113.125 L 141.347656 113.714844 L 141.851562 114.703125 L 142.378906 114.726562 C 142.460938 114.527344 142.542969 114.332031 142.625 114.132812 C 148.523438 115.050781 154.417969 115.972656 160.316406 116.894531 C 159.972656 116.117188 159.664062 115.492188 159.441406 115.070312 C 158.714844 113.699219 157.921875 112.359375 157.269531 110.953125 C 157.175781 110.753906 157.085938 110.554688 157 110.355469 C 152.636719 109.25 148.273438 108.148438 143.90625 107.046875 C 143.78125 106.484375 143.65625 105.925781 143.53125 105.363281 C 143.121094 105.144531 142.441406 104.851562 141.558594 104.757812 C 140.847656 104.679688 140.246094 104.753906 139.835938 104.84375 C 139.859375 105.429688 139.886719 106.015625 139.910156 106.601562 C 137.6875 106.175781 135.464844 105.746094 133.242188 105.320312 C 132.4375 102.015625 131.015625 97.535156 128.324219 92.675781 C 127.199219 90.636719 124.597656 85.941406 123.316406 86.363281 Z M 123.316406 86.363281 " fill-opacity="1" fill-rule="nonzero"/></g></g></g></g><g clip-path="url(#637e0b3e04)"><g clip-path="url(#cc3d9a98eb)"><g clip-path="url(#9bbbe85785)"><g clip-path="url(#fcb775c9a5)"><path fill="#939090" d="M 177.386719 208.617188 C 183.945312 214.183594 192.789062 219.898438 201.550781 220.566406 C 205.484375 220.945312 209.8125 220.332031 212.960938 217.742188 C 216.050781 215.261719 217.628906 211.339844 217.9375 207.476562 C 216.789062 212.296875 213.90625 216.734375 208.910156 218.042969 C 206.601562 218.675781 204.167969 218.585938 201.820312 218.21875 C 192.796875 216.902344 183.414062 209.660156 176.9375 203.464844 C 170.222656 197.011719 164.414062 189.636719 159.402344 181.78125 C 154.863281 174.660156 151.015625 167.132812 147.808594 159.300781 C 146.011719 154.929688 144.4375 150.453125 143.003906 145.949219 C 146.738281 169.445312 159.332031 193.078125 177.386719 208.617188 Z M 177.386719 208.617188 " fill-opacity="1" fill-rule="nonzero"/></g></g></g></g><g clip-path="url(#cc423aa400)"><path fill="#000000" d="M 136.054688 187.5 L 244.8125 187.5 L 244.8125 204.152344 L 136.054688 204.152344 Z M 136.054688 187.5 " fill-opacity="1" fill-rule="nonzero"/></g><g fill="#ffffff" fill-opacity="1"><g transform="translate(141.853295, 201.151643)"><g/></g></g><g fill="#ffffff" fill-opacity="1"><g transform="translate(152.751732, 201.151643)"><g><path d="M 6.25 -1.90625 C 6.8125 -1.90625 7.328125 -2.03125 7.796875 -2.28125 C 8.265625 -2.53125 8.648438 -2.867188 8.953125 -3.296875 L 10.625 -1.890625 C 10.101562 -1.273438 9.46875 -0.785156 8.71875 -0.421875 C 7.96875 -0.0546875 7.144531 0.125 6.25 0.125 C 5.476562 0.125 4.753906 -0.015625 4.078125 -0.296875 C 3.410156 -0.578125 2.820312 -0.960938 2.3125 -1.453125 C 1.800781 -1.953125 1.398438 -2.523438 1.109375 -3.171875 C 0.816406 -3.828125 0.671875 -4.53125 0.671875 -5.28125 C 0.671875 -6.03125 0.816406 -6.726562 1.109375 -7.375 C 1.398438 -8.03125 1.800781 -8.609375 2.3125 -9.109375 C 2.820312 -9.609375 3.410156 -9.992188 4.078125 -10.265625 C 4.753906 -10.546875 5.476562 -10.6875 6.25 -10.6875 C 7.144531 -10.6875 7.96875 -10.503906 8.71875 -10.140625 C 9.46875 -9.773438 10.101562 -9.285156 10.625 -8.671875 L 8.953125 -7.265625 C 8.648438 -7.691406 8.265625 -8.03125 7.796875 -8.28125 C 7.328125 -8.53125 6.8125 -8.65625 6.25 -8.65625 C 5.644531 -8.65625 5.085938 -8.515625 4.578125 -8.234375 C 4.066406 -7.953125 3.65625 -7.554688 3.34375 -7.046875 C 3.039062 -6.546875 2.890625 -5.957031 2.890625 -5.28125 C 2.890625 -4.625 3.039062 -4.039062 3.34375 -3.53125 C 3.65625 -3.019531 4.066406 -2.617188 4.578125 -2.328125 C 5.085938 -2.046875 5.644531 -1.90625 6.25 -1.90625 Z M 6.25 -1.90625 "/></g></g></g><g fill="#ffffff" fill-opacity="1"><g transform="translate(172.971716, 201.151643)"><g><path d="M 8.6875 -1.796875 L 8.6875 0 L 1.09375 0 L 1.09375 -10.578125 L 3.234375 -10.578125 L 3.234375 -1.796875 Z M 8.6875 -1.796875 "/></g></g></g><g fill="#ffffff" fill-opacity="1"><g transform="translate(191.181705, 201.151643)"><g><path d="M 10.359375 -10.578125 L 10.359375 -4.25 C 10.359375 -3.4375 10.179688 -2.695312 9.828125 -2.03125 C 9.472656 -1.375 8.945312 -0.847656 8.25 -0.453125 C 7.5625 -0.0664062 6.703125 0.125 5.671875 0.125 C 4.648438 0.125 3.789062 -0.0664062 3.09375 -0.453125 C 2.40625 -0.847656 1.882812 -1.375 1.53125 -2.03125 C 1.175781 -2.695312 1 -3.4375 1 -4.25 L 1 -10.578125 L 3.109375 -10.578125 L 3.109375 -4.796875 C 3.109375 -3.796875 3.320312 -3.054688 3.75 -2.578125 C 4.1875 -2.097656 4.828125 -1.859375 5.671875 -1.859375 C 7.398438 -1.859375 8.265625 -2.835938 8.265625 -4.796875 L 8.265625 -10.578125 Z M 10.359375 -10.578125 "/></g></g></g><g fill="#ffffff" fill-opacity="1"><g transform="translate(211.626694, 201.151643)"><g><path d="M 8.046875 -8.234375 C 8.046875 -7.929688 7.976562 -7.632812 7.84375 -7.34375 C 7.707031 -7.050781 7.515625 -6.828125 7.265625 -6.671875 C 7.816406 -6.597656 8.304688 -6.398438 8.734375 -6.078125 C 9.171875 -5.765625 9.507812 -5.367188 9.75 -4.890625 C 9.988281 -4.421875 10.109375 -3.90625 10.109375 -3.34375 C 10.109375 -2.757812 9.984375 -2.210938 9.734375 -1.703125 C 9.492188 -1.191406 9.140625 -0.78125 8.671875 -0.46875 C 8.203125 -0.15625 7.617188 0 6.921875 0 L 1.09375 0 L 1.09375 -10.578125 L 5.75 -10.578125 C 6.164062 -10.578125 6.546875 -10.46875 6.890625 -10.25 C 7.242188 -10.039062 7.523438 -9.757812 7.734375 -9.40625 C 7.941406 -9.0625 8.046875 -8.671875 8.046875 -8.234375 Z M 3.1875 -6.890625 L 5.109375 -6.890625 C 5.472656 -6.890625 5.734375 -6.984375 5.890625 -7.171875 C 6.046875 -7.367188 6.125 -7.578125 6.125 -7.796875 C 6.125 -8.054688 6.019531 -8.273438 5.8125 -8.453125 C 5.613281 -8.628906 5.328125 -8.71875 4.953125 -8.71875 L 3.1875 -8.71875 Z M 3.1875 -1.859375 L 5.75 -1.859375 C 6.488281 -1.859375 7.019531 -2.019531 7.34375 -2.34375 C 7.675781 -2.664062 7.84375 -3.070312 7.84375 -3.5625 C 7.84375 -3.851562 7.769531 -4.128906 7.625 -4.390625 C 7.476562 -4.648438 7.253906 -4.863281 6.953125 -5.03125 C 6.648438 -5.207031 6.253906 -5.296875 5.765625 -5.296875 L 3.1875 -5.296875 Z M 3.1875 -1.859375 "/></g></g></g><g fill="#ffffff" fill-opacity="1"><g transform="translate(231.337664, 201.151643)"><g/></g></g></svg>