<svg xmlns="http://www.w3.org/2000/svg" xmlns:xlink="http://www.w3.org/1999/xlink" width="200" zoomAndPan="magnify" viewBox="0 0 150 149.999998" height="200" preserveAspectRatio="xMidYMid meet" version="1.0"><path fill="#939090" d="M 137.097656 1.601562 C 135.972656 0.0117188 127.464844 4.277344 126.445312 4.792969 C 121.179688 7.429688 117.246094 10.484375 114.574219 12.863281 C 112.109375 11.601562 109.648438 10.339844 107.183594 9.082031 C 107.738281 8.65625 108.289062 8.230469 108.839844 7.804688 C 108.527344 7.398438 108.019531 6.835938 107.265625 6.332031 C 106.371094 5.738281 105.519531 5.488281 104.976562 5.375 C 104.476562 5.820312 103.976562 6.265625 103.476562 6.707031 C 99.148438 4.628906 94.816406 2.550781 90.488281 0.472656 C 90.464844 0.472656 90.441406 0.46875 90.421875 0.46875 C 87.890625 1.328125 85.550781 2.648438 83.144531 3.800781 C 88.574219 7.066406 94 10.328125 99.429688 13.59375 L 98.480469 14.492188 C 98.757812 14.671875 99.035156 14.855469 99.316406 15.035156 C 99.78125 14.808594 100.246094 14.585938 100.710938 14.363281 C 102.652344 15.53125 104.597656 16.699219 106.539062 17.867188 L 85.492188 35.726562 C 83.15625 34.640625 80.816406 33.558594 78.480469 32.476562 C 76.648438 33.15625 74.816406 33.835938 72.984375 34.515625 L 81.8125 40.011719 C 81.234375 40.660156 80.652344 41.308594 80.074219 41.953125 C 80.210938 42.140625 80.34375 42.324219 80.476562 42.507812 C 81.253906 42.230469 82.03125 41.953125 82.808594 41.675781 C 83.210938 44.894531 83.613281 48.117188 84.015625 51.335938 C 85.390625 49.988281 86.765625 48.644531 88.140625 47.296875 C 88.089844 44.605469 88.039062 41.914062 87.988281 39.222656 L 111.660156 25.171875 L 112.777344 31.160156 L 111.847656 32.0625 L 112 32.660156 C 112.25 32.683594 112.5 32.707031 112.75 32.730469 C 113.746094 39.640625 114.742188 46.546875 115.734375 53.457031 C 116.484375 52.804688 117.074219 52.246094 117.46875 51.851562 C 118.746094 50.570312 119.96875 49.222656 121.3125 48.007812 C 121.503906 47.835938 121.695312 47.667969 121.890625 47.503906 C 121.625 42.246094 121.355469 36.988281 121.089844 31.730469 C 121.671875 31.394531 122.253906 31.0625 122.839844 30.730469 C 122.941406 30.195312 123.035156 29.335938 122.839844 28.316406 C 122.679688 27.492188 122.390625 26.851562 122.152344 26.421875 C 121.507812 26.648438 120.859375 26.878906 120.214844 27.109375 C 119.929688 24.476562 119.644531 21.84375 119.359375 19.210938 C 122.769531 17.179688 127.277344 14.046875 131.773438 9.371094 C 133.65625 7.410156 138.003906 2.890625 137.097656 1.601562 Z M 137.097656 1.601562 " fill-opacity="1" fill-rule="nonzero"/><path fill="#939090" d="M 19.300781 104.066406 C 15.34375 113.3125 12.003906 125.160156 14.261719 135.183594 C 15.1875 139.710938 17.355469 144.34375 21.324219 146.96875 C 25.148438 149.570312 30.0625 149.988281 34.480469 149.003906 C 28.707031 149.375 22.773438 147.679688 19.601562 142.546875 C 18.101562 140.183594 17.367188 137.433594 16.972656 134.679688 C 15.351562 124.140625 20.207031 111.160156 24.894531 101.792969 C 29.785156 92.070312 36.019531 83.042969 43.0625 74.738281 C 49.449219 67.214844 56.523438 60.324219 64.15625 54.046875 C 68.414062 50.539062 72.867188 47.242188 77.398438 44.089844 C 52.476562 56.339844 30.441406 78.542969 19.300781 104.066406 Z M 19.300781 104.066406 " fill-opacity="1" fill-rule="nonzero"/></svg>