<svg xmlns="http://www.w3.org/2000/svg" xmlns:xlink="http://www.w3.org/1999/xlink" width="80" zoomAndPan="magnify" viewBox="0 0 60 60" height="80" preserveAspectRatio="xMidYMid meet" version="1.0"><defs><clipPath id="a7cfcbdd7b"><path d="M 2 0 L 59.609375 0 L 59.609375 58 L 2 58 Z M 2 0 " clip-rule="nonzero"/></clipPath></defs><path fill="#ffffff" d="M 5.429688 28.265625 C 5.429688 29.074219 5.472656 29.882812 5.550781 30.6875 C 5.628906 31.492188 5.75 32.292969 5.90625 33.085938 C 6.0625 33.878906 6.261719 34.664062 6.496094 35.4375 C 6.730469 36.210938 7.003906 36.972656 7.3125 37.71875 C 7.621094 38.46875 7.96875 39.199219 8.347656 39.914062 C 8.730469 40.625 9.144531 41.320312 9.59375 41.992188 C 10.046875 42.664062 10.527344 43.3125 11.039062 43.941406 C 11.554688 44.566406 12.097656 45.164062 12.667969 45.738281 C 13.242188 46.308594 13.839844 46.851562 14.464844 47.363281 C 15.089844 47.878906 15.738281 48.359375 16.414062 48.808594 C 17.085938 49.257812 17.777344 49.675781 18.492188 50.054688 C 19.207031 50.4375 19.9375 50.78125 20.683594 51.09375 C 21.433594 51.402344 22.191406 51.675781 22.96875 51.910156 C 23.742188 52.144531 24.527344 52.339844 25.320312 52.5 C 26.113281 52.65625 26.914062 52.773438 27.71875 52.855469 C 28.523438 52.933594 29.332031 52.972656 30.140625 52.972656 C 30.949219 52.972656 31.757812 52.933594 32.5625 52.855469 C 33.367188 52.773438 34.167969 52.65625 34.960938 52.5 C 35.753906 52.339844 36.539062 52.144531 37.3125 51.910156 C 38.085938 51.675781 38.847656 51.402344 39.59375 51.09375 C 40.34375 50.78125 41.074219 50.4375 41.789062 50.054688 C 42.5 49.675781 43.195312 49.257812 43.867188 48.808594 C 44.539062 48.359375 45.191406 47.878906 45.816406 47.363281 C 46.441406 46.851562 47.039062 46.308594 47.613281 45.738281 C 48.183594 45.164062 48.726562 44.566406 49.238281 43.941406 C 49.753906 43.3125 50.234375 42.664062 50.683594 41.992188 C 51.132812 41.320312 51.550781 40.625 51.929688 39.914062 C 52.3125 39.199219 52.65625 38.46875 52.96875 37.71875 C 53.277344 36.972656 53.550781 36.210938 53.785156 35.4375 C 54.019531 34.664062 54.214844 33.878906 54.375 33.085938 C 54.53125 32.292969 54.652344 31.492188 54.730469 30.6875 C 54.808594 29.882812 54.847656 29.074219 54.847656 28.265625 C 54.847656 27.457031 54.808594 26.648438 54.730469 25.84375 C 54.652344 25.039062 54.53125 24.238281 54.375 23.445312 C 54.214844 22.652344 54.019531 21.867188 53.785156 21.09375 C 53.550781 20.316406 53.277344 19.558594 52.96875 18.808594 C 52.65625 18.0625 52.3125 17.332031 51.929688 16.617188 C 51.550781 15.902344 51.132812 15.210938 50.683594 14.539062 C 50.234375 13.863281 49.753906 13.214844 49.238281 12.589844 C 48.726562 11.964844 48.183594 11.367188 47.613281 10.792969 C 47.039062 10.222656 46.441406 9.679688 45.816406 9.164062 C 45.191406 8.652344 44.539062 8.167969 43.867188 7.71875 C 43.195312 7.269531 42.5 6.855469 41.789062 6.472656 C 41.074219 6.09375 40.34375 5.746094 39.59375 5.4375 C 38.847656 5.128906 38.085938 4.855469 37.3125 4.621094 C 36.539062 4.386719 35.753906 4.1875 34.960938 4.03125 C 34.167969 3.871094 33.367188 3.753906 32.5625 3.675781 C 31.757812 3.597656 30.949219 3.554688 30.140625 3.554688 C 29.332031 3.554688 28.523438 3.597656 27.71875 3.675781 C 26.914062 3.753906 26.113281 3.871094 25.320312 4.03125 C 24.527344 4.1875 23.742188 4.386719 22.96875 4.621094 C 22.191406 4.855469 21.433594 5.128906 20.683594 5.4375 C 19.9375 5.746094 19.207031 6.09375 18.492188 6.472656 C 17.777344 6.855469 17.085938 7.269531 16.414062 7.71875 C 15.738281 8.167969 15.089844 8.652344 14.464844 9.164062 C 13.839844 9.679688 13.242188 10.222656 12.667969 10.792969 C 12.097656 11.367188 11.554688 11.964844 11.039062 12.589844 C 10.527344 13.214844 10.046875 13.863281 9.59375 14.539062 C 9.144531 15.210938 8.730469 15.902344 8.347656 16.617188 C 7.96875 17.332031 7.621094 18.0625 7.3125 18.808594 C 7.003906 19.558594 6.730469 20.316406 6.496094 21.09375 C 6.261719 21.867188 6.0625 22.652344 5.90625 23.445312 C 5.75 24.238281 5.628906 25.039062 5.550781 25.84375 C 5.472656 26.648438 5.429688 27.457031 5.429688 28.265625 Z M 5.429688 28.265625 " fill-opacity="1" fill-rule="nonzero"/><g clip-path="url(#a7cfcbdd7b)"><path fill="#5271ff" d="M 10.472656 9.722656 C 11.191406 8.953125 11.949219 8.226562 12.746094 7.542969 C 13.542969 6.859375 14.375 6.21875 15.246094 5.625 C 16.113281 5.035156 17.011719 4.492188 17.941406 4 C 18.871094 3.507812 19.824219 3.066406 20.804688 2.683594 C 21.78125 2.296875 22.777344 1.964844 23.792969 1.691406 C 24.808594 1.414062 25.835938 1.195312 26.875 1.035156 C 27.914062 0.875 28.957031 0.769531 30.007812 0.726562 C 31.058594 0.683594 32.109375 0.695312 33.160156 0.765625 C 34.207031 0.839844 35.25 0.96875 36.285156 1.15625 C 37.320312 1.34375 38.339844 1.589844 39.347656 1.890625 C 40.355469 2.195312 41.34375 2.550781 42.308594 2.960938 C 43.277344 3.371094 44.21875 3.835938 45.136719 4.351562 C 46.050781 4.871094 46.9375 5.433594 47.789062 6.050781 C 48.644531 6.664062 49.460938 7.324219 50.238281 8.03125 C 51.019531 8.734375 51.757812 9.480469 52.453125 10.269531 C 53.152344 11.058594 53.800781 11.882812 54.40625 12.742188 C 55.03125 13.625 55.597656 14.539062 56.117188 15.488281 C 58.191406 19.285156 59.335938 23.347656 59.550781 27.671875 C 59.570312 28.132812 59.582031 28.59375 59.582031 29.0625 C 59.582031 29.640625 59.566406 30.214844 59.53125 30.789062 C 59.496094 31.363281 59.445312 31.9375 59.375 32.507812 C 59.308594 33.078125 59.222656 33.648438 59.117188 34.214844 C 59.011719 34.777344 58.894531 35.339844 58.753906 35.898438 C 58.617188 36.457031 58.460938 37.011719 58.289062 37.5625 C 58.117188 38.113281 57.929688 38.65625 57.726562 39.191406 C 57.519531 39.730469 57.300781 40.261719 57.0625 40.785156 C 56.824219 41.308594 56.574219 41.828125 56.304688 42.335938 C 56.035156 42.84375 55.75 43.34375 55.453125 43.835938 C 55.152344 44.328125 54.839844 44.8125 54.511719 45.285156 C 54.183594 45.757812 53.839844 46.21875 53.484375 46.671875 C 53.128906 47.121094 52.757812 47.5625 52.375 47.992188 C 51.992188 48.421875 51.59375 48.839844 51.1875 49.242188 C 50.777344 49.648438 50.359375 50.039062 49.925781 50.421875 C 49.492188 50.800781 49.046875 51.164062 48.59375 51.519531 C 48.140625 51.871094 47.675781 52.210938 47.199219 52.535156 C 46.722656 52.859375 46.238281 53.167969 45.742188 53.460938 C 45.25 53.757812 44.746094 54.035156 44.234375 54.300781 C 43.722656 54.566406 43.207031 54.8125 42.679688 55.046875 C 42.152344 55.277344 41.621094 55.496094 41.082031 55.695312 C 40.539062 55.894531 39.996094 56.078125 39.445312 56.246094 C 38.894531 56.414062 38.339844 56.5625 37.777344 56.695312 C 37.21875 56.828125 36.65625 56.945312 36.089844 57.042969 C 35.523438 57.144531 34.953125 57.222656 34.382812 57.289062 C 33.808594 57.351562 33.234375 57.398438 32.660156 57.429688 C 32.085938 57.457031 31.511719 57.46875 30.9375 57.464844 C 30.359375 57.457031 29.785156 57.4375 29.210938 57.394531 C 28.636719 57.355469 28.066406 57.296875 27.496094 57.222656 C 26.925781 57.144531 26.355469 57.054688 25.792969 56.941406 C 25.226562 56.832031 24.664062 56.707031 24.109375 56.5625 C 23.550781 56.417969 23 56.257812 22.453125 56.078125 C 21.90625 55.902344 21.363281 55.707031 20.828125 55.496094 C 20.292969 55.285156 19.761719 55.058594 19.242188 54.816406 C 18.71875 54.574219 18.207031 54.316406 17.699219 54.039062 C 17.195312 53.765625 16.695312 53.476562 16.207031 53.171875 C 15.71875 52.867188 15.242188 52.550781 14.773438 52.214844 C 14.304688 51.882812 13.84375 51.535156 13.398438 51.171875 C 12.949219 50.8125 12.511719 50.4375 12.089844 50.050781 C 11.664062 49.660156 11.25 49.261719 10.851562 48.847656 C 10.449219 48.433594 10.0625 48.007812 9.6875 47.574219 C 9.3125 47.136719 8.949219 46.6875 8.601562 46.230469 C 8.253906 45.769531 7.921875 45.300781 7.601562 44.824219 C 7.285156 44.34375 6.980469 43.855469 6.691406 43.359375 C 6.402344 42.863281 6.128906 42.355469 5.867188 41.839844 C 5.609375 41.328125 5.367188 40.804688 5.140625 40.277344 C 4.914062 39.746094 4.703125 39.210938 4.507812 38.671875 C 4.316406 38.128906 4.136719 37.582031 3.976562 37.03125 C 3.816406 36.476562 3.671875 35.921875 3.546875 35.359375 C 3.417969 34.796875 3.308594 34.234375 3.214844 33.664062 C 3.121094 33.097656 3.046875 32.527344 2.988281 31.953125 C 2.929688 31.382812 2.890625 30.808594 2.867188 30.234375 C 2.84375 29.65625 2.839844 29.082031 2.851562 28.507812 C 2.863281 27.933594 2.894531 27.359375 2.941406 26.785156 C 2.988281 26.210938 3.050781 25.640625 3.132812 25.070312 C 3.214844 24.5 3.3125 23.933594 3.429688 23.371094 C 3.546875 22.804688 3.679688 22.246094 3.828125 21.691406 C 3.980469 21.136719 4.148438 20.585938 4.332031 20.039062 C 4.515625 19.492188 4.714844 18.953125 4.929688 18.421875 C 5.148438 17.886719 5.378906 17.363281 5.628906 16.84375 C 5.878906 16.324219 6.140625 15.8125 6.421875 15.308594 C 6.699219 14.808594 6.996094 14.3125 7.304688 13.828125 C 7.613281 13.34375 7.9375 12.867188 8.277344 12.402344 C 8.617188 11.9375 8.96875 11.484375 9.335938 11.039062 C 9.703125 10.59375 10.082031 10.164062 10.472656 9.742188 Z M 22.019531 37.125 L 31.59375 45.1875 L 31.59375 36.734375 L 49.996094 36.734375 L 49.996094 21.398438 L 31.59375 21.398438 L 31.59375 12.945312 L 12.429688 29.0625 Z M 22.019531 37.125 " fill-opacity="1" fill-rule="nonzero"/></g></svg>