<svg xmlns="http://www.w3.org/2000/svg" xmlns:xlink="http://www.w3.org/1999/xlink" width="200" zoomAndPan="magnify" viewBox="0 0 150 149.999998" height="200" preserveAspectRatio="xMidYMid meet" version="1.0"><path fill="#ffffff" d="M 137.085938 1.601562 C 135.960938 0.0117188 127.453125 4.277344 126.433594 4.792969 C 121.167969 7.429688 117.234375 10.484375 114.566406 12.863281 C 112.101562 11.601562 109.636719 10.339844 107.175781 9.082031 C 107.726562 8.65625 108.28125 8.230469 108.832031 7.804688 C 108.519531 7.398438 108.011719 6.835938 107.257812 6.332031 C 106.363281 5.738281 105.511719 5.488281 104.96875 5.375 C 104.46875 5.820312 103.96875 6.265625 103.46875 6.707031 C 99.140625 4.628906 94.808594 2.550781 90.480469 0.472656 C 90.457031 0.472656 90.433594 0.46875 90.414062 0.46875 C 87.882812 1.328125 85.546875 2.648438 83.136719 3.800781 C 88.566406 7.066406 93.996094 10.328125 99.421875 13.59375 L 98.472656 14.492188 C 98.75 14.671875 99.027344 14.855469 99.304688 15.035156 C 99.773438 14.808594 100.238281 14.585938 100.703125 14.363281 C 102.644531 15.53125 104.585938 16.699219 106.53125 17.867188 L 85.484375 35.726562 C 83.148438 34.640625 80.8125 33.558594 78.472656 32.476562 C 76.640625 33.15625 74.808594 33.835938 72.976562 34.515625 L 81.804688 40.011719 C 81.226562 40.660156 80.648438 41.308594 80.070312 41.953125 C 80.203125 42.140625 80.335938 42.324219 80.472656 42.507812 C 81.25 42.230469 82.027344 41.953125 82.804688 41.675781 C 83.207031 44.894531 83.609375 48.117188 84.011719 51.335938 C 85.382812 49.988281 86.757812 48.644531 88.132812 47.296875 C 88.082031 44.605469 88.03125 41.914062 87.984375 39.222656 L 111.648438 25.171875 L 112.765625 31.160156 L 111.835938 32.0625 L 111.988281 32.660156 C 112.238281 32.683594 112.488281 32.707031 112.738281 32.730469 C 113.734375 39.640625 114.730469 46.546875 115.726562 53.457031 C 116.472656 52.804688 117.066406 52.246094 117.457031 51.851562 C 118.738281 50.570312 119.960938 49.222656 121.304688 48.007812 C 121.492188 47.835938 121.683594 47.667969 121.878906 47.503906 C 121.613281 42.246094 121.347656 36.988281 121.078125 31.730469 C 121.664062 31.394531 122.246094 31.0625 122.828125 30.730469 C 122.929688 30.195312 123.023438 29.335938 122.828125 28.316406 C 122.671875 27.492188 122.378906 26.851562 122.140625 26.421875 C 121.496094 26.648438 120.851562 26.878906 120.207031 27.109375 C 119.921875 24.476562 119.632812 21.84375 119.347656 19.210938 C 122.757812 17.179688 127.265625 14.046875 131.761719 9.371094 C 133.648438 7.410156 137.992188 2.890625 137.085938 1.601562 Z M 137.085938 1.601562 " fill-opacity="1" fill-rule="nonzero"/><path fill="#ffffff" d="M 19.300781 104.066406 C 15.34375 113.3125 12.003906 125.160156 14.261719 135.183594 C 15.1875 139.710938 17.355469 144.34375 21.324219 146.96875 C 25.148438 149.570312 30.0625 149.988281 34.476562 149.003906 C 28.707031 149.375 22.773438 147.679688 19.597656 142.546875 C 18.101562 140.183594 17.367188 137.433594 16.972656 134.679688 C 15.347656 124.140625 20.207031 111.160156 24.894531 101.792969 C 29.785156 92.070312 36.015625 83.042969 43.058594 74.738281 C 49.445312 67.214844 56.519531 60.324219 64.152344 54.046875 C 68.40625 50.539062 72.859375 47.242188 77.390625 44.089844 C 52.472656 56.339844 30.441406 78.542969 19.300781 104.066406 Z M 19.300781 104.066406 " fill-opacity="1" fill-rule="nonzero"/></svg>