<svg xmlns="http://www.w3.org/2000/svg" xmlns:xlink="http://www.w3.org/1999/xlink" width="64" zoomAndPan="magnify" viewBox="0 0 48 48" height="64" preserveAspectRatio="xMidYMid meet" version="1.0"><path fill="#737373" d="M 35.421875 12.085938 C 34.273438 11.386719 33.039062 10.886719 29.316406 13.949219 C 28.140625 14.917969 26.730469 16.234375 25.242188 17.71875 C 25.242188 17.71875 25.238281 17.71875 25.238281 17.71875 C 25.238281 17.71875 19.203125 14.199219 19.203125 14.199219 C 19.203125 14.199219 12.839844 10.492188 12.839844 10.492188 C 12.355469 10.992188 11.871094 11.492188 11.386719 11.992188 C 14.777344 15.175781 18.167969 18.363281 21.558594 21.546875 C 18.949219 24.367188 16.460938 27.273438 14.84375 29.390625 C 14.625 29.675781 14.425781 29.945312 14.238281 30.199219 C 14.238281 30.199219 11.328125 28.589844 11.328125 28.589844 C 11.328125 28.589844 7.839844 26.65625 7.839844 26.65625 C 7.554688 26.949219 7.269531 27.242188 6.988281 27.535156 C 8.859375 29.285156 10.734375 31.035156 12.605469 32.785156 C 12.265625 33.828125 12.277344 34.1875 12.566406 34.925781 C 13.335938 35.242188 13.59375 35.265625 14.726562 34.902344 C 14.726562 34.902344 14.726562 34.90625 14.726562 34.90625 C 16.476562 36.777344 18.226562 38.652344 19.972656 40.523438 C 20.265625 40.238281 20.558594 39.953125 20.851562 39.667969 C 20.851562 39.667969 18.921875 36.183594 18.921875 36.183594 C 18.921875 36.183594 17.308594 33.273438 17.308594 33.273438 C 17.566406 33.085938 17.835938 32.886719 18.121094 32.667969 C 20.238281 31.050781 23.144531 28.558594 25.964844 25.953125 C 29.148438 29.34375 32.332031 32.730469 35.519531 36.121094 C 36.019531 35.636719 36.515625 35.152344 37.015625 34.667969 C 37.015625 34.667969 33.308594 28.308594 33.308594 28.308594 C 33.308594 28.308594 29.792969 22.269531 29.792969 22.269531 C 31.277344 20.777344 32.589844 19.371094 33.558594 18.191406 C 36.625 14.472656 36.125 13.238281 35.425781 12.089844 C 35.425781 12.089844 35.425781 12.089844 35.421875 12.085938 " fill-opacity="1" fill-rule="nonzero"/><path fill="#737373" d="M 32.242188 25.699219 C 32.597656 25.34375 32.769531 24.9375 32.625 24.792969 C 32.625 24.792969 31.5625 23.730469 31.5625 23.730469 C 31.417969 23.585938 31.011719 23.757812 30.65625 24.113281 C 30.65625 24.113281 30.5625 24.203125 30.5625 24.203125 C 30.207031 24.558594 30.035156 24.96875 30.183594 25.113281 C 30.183594 25.113281 31.242188 26.171875 31.242188 26.171875 C 31.390625 26.320312 31.796875 26.148438 32.152344 25.792969 C 32.152344 25.792969 32.242188 25.699219 32.242188 25.699219 " fill-opacity="1" fill-rule="nonzero"/><path fill="#737373" d="M 34.582031 30.21875 C 34.9375 29.863281 35.109375 29.457031 34.964844 29.3125 C 34.964844 29.3125 33.902344 28.25 33.902344 28.25 C 33.757812 28.105469 33.351562 28.277344 32.992188 28.632812 C 32.992188 28.632812 32.902344 28.722656 32.902344 28.722656 C 32.546875 29.078125 32.375 29.484375 32.519531 29.632812 C 32.519531 29.632812 33.582031 30.691406 33.582031 30.691406 C 33.726562 30.839844 34.136719 30.667969 34.492188 30.3125 C 34.492188 30.3125 34.582031 30.21875 34.582031 30.21875 " fill-opacity="1" fill-rule="nonzero"/><path fill="#737373" d="M 31.871094 32.152344 C 31.691406 32.332031 31.484375 32.417969 31.410156 32.34375 C 31.410156 32.34375 30.871094 31.804688 30.871094 31.804688 C 30.796875 31.730469 30.882812 31.523438 31.0625 31.339844 C 31.0625 31.339844 31.109375 31.296875 31.109375 31.296875 C 31.292969 31.113281 31.5 31.027344 31.574219 31.101562 C 31.574219 31.101562 32.113281 31.640625 32.113281 31.640625 C 32.1875 31.714844 32.101562 31.921875 31.917969 32.105469 C 31.917969 32.105469 31.871094 32.152344 31.871094 32.152344 " fill-opacity="1" fill-rule="nonzero"/><path fill="#737373" d="M 28.664062 28.578125 C 28.464844 28.777344 28.238281 28.871094 28.15625 28.789062 C 28.15625 28.789062 27.566406 28.199219 27.566406 28.199219 C 27.484375 28.117188 27.578125 27.890625 27.777344 27.691406 C 27.777344 27.691406 27.828125 27.640625 27.828125 27.640625 C 28.027344 27.441406 28.253906 27.347656 28.335938 27.429688 C 28.335938 27.429688 28.925781 28.019531 28.925781 28.019531 C 29.007812 28.101562 28.914062 28.328125 28.714844 28.527344 C 28.714844 28.527344 28.664062 28.578125 28.664062 28.578125 " fill-opacity="1" fill-rule="nonzero"/><path fill="#737373" d="M 15.359375 15.636719 C 15.179688 15.820312 15.089844 16.027344 15.164062 16.101562 C 15.164062 16.101562 15.707031 16.640625 15.707031 16.640625 C 15.78125 16.714844 15.988281 16.628906 16.167969 16.445312 C 16.167969 16.445312 16.214844 16.398438 16.214844 16.398438 C 16.398438 16.21875 16.484375 16.011719 16.410156 15.9375 C 16.410156 15.9375 15.867188 15.398438 15.867188 15.398438 C 15.792969 15.324219 15.585938 15.410156 15.40625 15.589844 C 15.40625 15.589844 15.359375 15.636719 15.359375 15.636719 " fill-opacity="1" fill-rule="nonzero"/><path fill="#737373" d="M 17.289062 12.929688 C 17.644531 12.570312 18.054688 12.402344 18.199219 12.546875 C 18.199219 12.546875 19.261719 13.605469 19.261719 13.605469 C 19.40625 13.753906 19.234375 14.160156 18.878906 14.515625 C 18.878906 14.515625 18.789062 14.605469 18.789062 14.605469 C 18.429688 14.964844 18.023438 15.132812 17.878906 14.988281 C 17.878906 14.988281 16.816406 13.929688 16.816406 13.929688 C 16.671875 13.78125 16.84375 13.375 17.199219 13.019531 C 17.199219 13.019531 17.289062 12.929688 17.289062 12.929688 " fill-opacity="1" fill-rule="nonzero"/><path fill="#737373" d="M 18.914062 18.828125 C 18.714844 19.027344 18.621094 19.253906 18.699219 19.335938 C 18.699219 19.335938 19.292969 19.925781 19.292969 19.925781 C 19.375 20.007812 19.601562 19.910156 19.800781 19.714844 C 19.800781 19.714844 19.851562 19.664062 19.851562 19.664062 C 20.046875 19.464844 20.144531 19.238281 20.0625 19.15625 C 20.0625 19.15625 19.472656 18.5625 19.472656 18.5625 C 19.390625 18.484375 19.164062 18.578125 18.964844 18.777344 C 18.964844 18.777344 18.914062 18.828125 18.914062 18.828125 " fill-opacity="1" fill-rule="nonzero"/><path fill="#737373" d="M 21.789062 15.246094 C 22.144531 14.890625 22.554688 14.71875 22.699219 14.867188 C 22.699219 14.867188 23.761719 15.925781 23.761719 15.925781 C 23.90625 16.074219 23.734375 16.480469 23.378906 16.835938 C 23.378906 16.835938 23.289062 16.925781 23.289062 16.925781 C 22.929688 17.285156 22.523438 17.453125 22.378906 17.308594 C 22.378906 17.308594 21.316406 16.246094 21.316406 16.246094 C 21.171875 16.101562 21.34375 15.695312 21.699219 15.339844 C 21.699219 15.339844 21.789062 15.246094 21.789062 15.246094 " fill-opacity="1" fill-rule="nonzero"/></svg>