<svg xmlns="http://www.w3.org/2000/svg" xmlns:xlink="http://www.w3.org/1999/xlink" width="200" zoomAndPan="magnify" viewBox="0 0 150 85.499998" height="114" preserveAspectRatio="xMidYMid meet" version="1.0"><defs><g/><clipPath id="fb967315c9"><path d="M 14 4.503906 L 81.84375 4.503906 L 81.84375 42.695312 L 14 42.695312 Z M 14 4.503906 " clip-rule="nonzero"/></clipPath></defs><g clip-path="url(#fb967315c9)"><path fill="#000000" d="M 77.492188 16.25 C 79.34375 16.988281 81.847656 16.988281 81.847656 19.023438 C 81.847656 23.828125 61.921875 26.691406 61.179688 26.691406 L 54.597656 41.019531 C 54.132812 42.128906 53.484375 42.40625 52.742188 42.496094 L 50.609375 42.683594 L 50.609375 32.703125 L 46.441406 29.003906 C 45.976562 29.003906 43.285156 29.464844 37.726562 29.464844 C 31.238281 29.464844 29.476562 29.1875 29.015625 29.1875 L 28.273438 32.332031 C 28.179688 32.886719 26.605469 33.164062 26.328125 32.792969 L 22.988281 28.355469 C 22.34375 28.355469 20.671875 28.171875 20.671875 27.617188 C 20.671875 26.878906 20.953125 26.601562 21.320312 26.417969 L 14.277344 19.855469 C 13.816406 19.394531 15.484375 18.46875 16.964844 19.207031 L 23.824219 22.441406 L 23.359375 17.082031 L 24.9375 16.804688 C 25.492188 16.710938 26.699219 17.546875 27.070312 17.914062 L 31.890625 23.089844 L 40.230469 21.515625 L 36.335938 17.546875 L 18.082031 6.085938 L 19.652344 4.882812 C 19.652344 4.882812 20.027344 4.511719 21.324219 4.511719 L 57.5625 18.5625 L 68.871094 16.4375 C 69.335938 16.34375 71.28125 15.234375 73.597656 15.234375 C 76.101562 15.234375 76.101562 15.695312 77.492188 16.25 " fill-opacity="1" fill-rule="nonzero"/></g><g fill="#000000" fill-opacity="1"><g transform="translate(3.093817, 77.045826)"><g><path d="M 1.578125 -20.28125 L 4.40625 -20.28125 L 4.40625 -10.71875 L 9.0625 -20.28125 L 11.6875 -20.28125 L 7.6875 -11.34375 L 12.34375 0 L 9.59375 0 L 5.703125 -9.515625 L 4.40625 -7.15625 L 4.40625 0 L 1.578125 0 Z M 1.578125 -20.28125 "/></g></g></g><g fill="#000000" fill-opacity="1"><g transform="translate(15.481908, 77.045826)"><g><path d="M 6.8125 0.21875 C 5.394531 0.21875 4.285156 -0.0625 3.484375 -0.625 C 2.691406 -1.195312 2.144531 -1.988281 1.84375 -3 C 1.550781 -4.019531 1.40625 -5.296875 1.40625 -6.828125 L 1.40625 -20.28125 L 4.109375 -20.28125 L 4.109375 -6.703125 C 4.109375 -5.171875 4.285156 -4.003906 4.640625 -3.203125 C 5.003906 -2.398438 5.726562 -2 6.8125 -2 C 7.894531 -2 8.613281 -2.398438 8.96875 -3.203125 C 9.332031 -4.003906 9.515625 -5.171875 9.515625 -6.703125 L 9.515625 -20.28125 L 12.1875 -20.28125 L 12.1875 -6.828125 C 12.1875 -5.296875 12.035156 -4.019531 11.734375 -3 C 11.441406 -1.988281 10.898438 -1.195312 10.109375 -0.625 C 9.328125 -0.0625 8.226562 0.21875 6.8125 0.21875 Z M 6.8125 0.21875 "/></g></g></g><g fill="#000000" fill-opacity="1"><g transform="translate(29.071261, 77.045826)"><g><path d="M 1.578125 -20.28125 L 5.65625 -20.28125 C 7.707031 -20.28125 9.210938 -19.859375 10.171875 -19.015625 C 11.128906 -18.171875 11.609375 -16.796875 11.609375 -14.890625 C 11.609375 -12.285156 10.773438 -10.707031 9.109375 -10.15625 L 11.984375 0 L 9.265625 0 L 6.609375 -9.515625 L 4.40625 -9.515625 L 4.40625 0 L 1.578125 0 Z M 5.484375 -11.546875 C 6.703125 -11.546875 7.570312 -11.785156 8.09375 -12.265625 C 8.625 -12.742188 8.890625 -13.617188 8.890625 -14.890625 C 8.890625 -15.722656 8.796875 -16.378906 8.609375 -16.859375 C 8.421875 -17.335938 8.09375 -17.6875 7.625 -17.90625 C 7.164062 -18.132812 6.507812 -18.25 5.65625 -18.25 L 4.40625 -18.25 L 4.40625 -11.546875 Z M 5.484375 -11.546875 "/></g></g></g><g fill="#000000" fill-opacity="1"><g transform="translate(42.059988, 77.045826)"><g><path d="M 4.78125 -20.28125 L 7.515625 -20.28125 L 11.84375 0 L 9.15625 0 L 8.234375 -5.109375 L 4.109375 -5.109375 L 3.125 0 L 0.46875 0 Z M 7.859375 -7.140625 L 6.15625 -16.265625 L 4.484375 -7.140625 Z M 7.859375 -7.140625 "/></g></g></g><g fill="#000000" fill-opacity="1"><g transform="translate(54.372992, 77.045826)"><g><path d="M 3.8125 -18.171875 L 0.375 -18.171875 L 0.375 -20.28125 L 9.96875 -20.28125 L 9.96875 -18.171875 L 6.640625 -18.171875 L 6.640625 0 L 3.8125 0 Z M 3.8125 -18.171875 "/></g></g></g><g fill="#000000" fill-opacity="1"><g transform="translate(64.708909, 77.045826)"><g><path d="M 6.65625 0.21875 C 4.65625 0.21875 3.242188 -0.375 2.421875 -1.5625 C 1.609375 -2.757812 1.203125 -4.410156 1.203125 -6.515625 L 1.203125 -13.671875 C 1.203125 -15.890625 1.601562 -17.570312 2.40625 -18.71875 C 3.207031 -19.875 4.625 -20.453125 6.65625 -20.453125 C 8.476562 -20.453125 9.785156 -19.957031 10.578125 -18.96875 C 11.367188 -17.988281 11.765625 -16.539062 11.765625 -14.625 L 11.765625 -13.015625 L 9.09375 -13.015625 L 9.09375 -14.4375 C 9.09375 -15.375 9.050781 -16.09375 8.96875 -16.59375 C 8.882812 -17.09375 8.671875 -17.492188 8.328125 -17.796875 C 7.984375 -18.097656 7.4375 -18.25 6.6875 -18.25 C 5.914062 -18.25 5.34375 -18.082031 4.96875 -17.75 C 4.59375 -17.425781 4.347656 -16.976562 4.234375 -16.40625 C 4.117188 -15.832031 4.0625 -15.0625 4.0625 -14.09375 L 4.0625 -6.0625 C 4.0625 -5.019531 4.144531 -4.207031 4.3125 -3.625 C 4.476562 -3.039062 4.75 -2.625 5.125 -2.375 C 5.5 -2.125 6.019531 -2 6.6875 -2 C 7.40625 -2 7.9375 -2.15625 8.28125 -2.46875 C 8.632812 -2.789062 8.859375 -3.226562 8.953125 -3.78125 C 9.046875 -4.332031 9.09375 -5.082031 9.09375 -6.03125 L 9.09375 -7.53125 L 11.765625 -7.53125 L 11.765625 -6.03125 C 11.765625 -4.007812 11.382812 -2.460938 10.625 -1.390625 C 9.863281 -0.316406 8.539062 0.21875 6.65625 0.21875 Z M 6.65625 0.21875 "/></g></g></g><g fill="#000000" fill-opacity="1"><g transform="translate(77.597522, 77.045826)"><g><path d="M 1.578125 -20.28125 L 4.40625 -20.28125 L 4.40625 -11.515625 L 9.609375 -11.515625 L 9.609375 -20.28125 L 12.4375 -20.28125 L 12.4375 0 L 9.609375 0 L 9.609375 -9.484375 L 4.40625 -9.484375 L 4.40625 0 L 1.578125 0 Z M 1.578125 -20.28125 "/></g></g></g><g fill="#000000" fill-opacity="1"><g transform="translate(91.637357, 77.045826)"><g/></g></g><g fill="#000000" fill-opacity="1"><g transform="translate(97.368413, 77.045826)"><g><path d="M 6.65625 0.21875 C 4.65625 0.21875 3.242188 -0.375 2.421875 -1.5625 C 1.609375 -2.757812 1.203125 -4.410156 1.203125 -6.515625 L 1.203125 -13.671875 C 1.203125 -15.890625 1.601562 -17.570312 2.40625 -18.71875 C 3.207031 -19.875 4.625 -20.453125 6.65625 -20.453125 C 8.476562 -20.453125 9.785156 -19.957031 10.578125 -18.96875 C 11.367188 -17.988281 11.765625 -16.539062 11.765625 -14.625 L 11.765625 -13.015625 L 9.09375 -13.015625 L 9.09375 -14.4375 C 9.09375 -15.375 9.050781 -16.09375 8.96875 -16.59375 C 8.882812 -17.09375 8.671875 -17.492188 8.328125 -17.796875 C 7.984375 -18.097656 7.4375 -18.25 6.6875 -18.25 C 5.914062 -18.25 5.34375 -18.082031 4.96875 -17.75 C 4.59375 -17.425781 4.347656 -16.976562 4.234375 -16.40625 C 4.117188 -15.832031 4.0625 -15.0625 4.0625 -14.09375 L 4.0625 -6.0625 C 4.0625 -5.019531 4.144531 -4.207031 4.3125 -3.625 C 4.476562 -3.039062 4.75 -2.625 5.125 -2.375 C 5.5 -2.125 6.019531 -2 6.6875 -2 C 7.40625 -2 7.9375 -2.15625 8.28125 -2.46875 C 8.632812 -2.789062 8.859375 -3.226562 8.953125 -3.78125 C 9.046875 -4.332031 9.09375 -5.082031 9.09375 -6.03125 L 9.09375 -7.53125 L 11.765625 -7.53125 L 11.765625 -6.03125 C 11.765625 -4.007812 11.382812 -2.460938 10.625 -1.390625 C 9.863281 -0.316406 8.539062 0.21875 6.65625 0.21875 Z M 6.65625 0.21875 "/></g></g></g><g fill="#000000" fill-opacity="1"><g transform="translate(110.257027, 77.045826)"><g><path d="M 1.578125 -20.28125 L 4.40625 -20.28125 L 4.40625 -2.03125 L 9.59375 -2.03125 L 9.59375 0 L 1.578125 0 Z M 1.578125 -20.28125 "/></g></g></g><g fill="#000000" fill-opacity="1"><g transform="translate(120.192523, 77.045826)"><g><path d="M 6.8125 0.21875 C 5.394531 0.21875 4.285156 -0.0625 3.484375 -0.625 C 2.691406 -1.195312 2.144531 -1.988281 1.84375 -3 C 1.550781 -4.019531 1.40625 -5.296875 1.40625 -6.828125 L 1.40625 -20.28125 L 4.109375 -20.28125 L 4.109375 -6.703125 C 4.109375 -5.171875 4.285156 -4.003906 4.640625 -3.203125 C 5.003906 -2.398438 5.726562 -2 6.8125 -2 C 7.894531 -2 8.613281 -2.398438 8.96875 -3.203125 C 9.332031 -4.003906 9.515625 -5.171875 9.515625 -6.703125 L 9.515625 -20.28125 L 12.1875 -20.28125 L 12.1875 -6.828125 C 12.1875 -5.296875 12.035156 -4.019531 11.734375 -3 C 11.441406 -1.988281 10.898438 -1.195312 10.109375 -0.625 C 9.328125 -0.0625 8.226562 0.21875 6.8125 0.21875 Z M 6.8125 0.21875 "/></g></g></g><g fill="#000000" fill-opacity="1"><g transform="translate(133.781876, 77.045826)"><g><path d="M 1.578125 -20.28125 L 6.234375 -20.28125 C 8.066406 -20.28125 9.425781 -19.863281 10.3125 -19.03125 C 11.195312 -18.207031 11.640625 -16.925781 11.640625 -15.1875 C 11.640625 -12.601562 10.671875 -11.175781 8.734375 -10.90625 C 9.929688 -10.625 10.804688 -10.0625 11.359375 -9.21875 C 11.910156 -8.375 12.1875 -7.226562 12.1875 -5.78125 C 12.1875 -3.957031 11.753906 -2.535156 10.890625 -1.515625 C 10.035156 -0.503906 8.734375 0 6.984375 0 L 1.578125 0 Z M 6.078125 -11.8125 C 7.242188 -11.8125 8.050781 -12.066406 8.5 -12.578125 C 8.957031 -13.085938 9.1875 -13.957031 9.1875 -15.1875 C 9.1875 -16.09375 9.046875 -16.757812 8.765625 -17.1875 C 8.492188 -17.613281 8.082031 -17.882812 7.53125 -18 C 6.976562 -18.113281 6.160156 -18.171875 5.078125 -18.171875 L 4.40625 -18.171875 L 4.40625 -11.8125 Z M 6.3125 -2.03125 C 7.144531 -2.03125 7.789062 -2.15625 8.25 -2.40625 C 8.707031 -2.664062 9.023438 -3.0625 9.203125 -3.59375 C 9.390625 -4.132812 9.484375 -4.863281 9.484375 -5.78125 C 9.484375 -7.082031 9.21875 -8.050781 8.6875 -8.6875 C 8.15625 -9.332031 7.285156 -9.65625 6.078125 -9.65625 L 4.40625 -9.65625 L 4.40625 -2.03125 Z M 6.3125 -2.03125 "/></g></g></g><g fill="#000000" fill-opacity="1"><g transform="translate(60.698692, 48.726696)"><g><path d="M 1.34375 -6.40625 L 0.125 -6.40625 L 0.125 -7.15625 L 3.515625 -7.15625 L 3.515625 -6.40625 L 2.34375 -6.40625 L 2.34375 0 L 1.34375 0 Z M 1.34375 -6.40625 "/></g></g></g><g fill="#000000" fill-opacity="1"><g transform="translate(65.824439, 48.726696)"><g><path d="M 2.390625 0.078125 C 1.679688 0.078125 1.175781 -0.117188 0.875 -0.515625 C 0.570312 -0.910156 0.421875 -1.488281 0.421875 -2.25 L 0.421875 -4.953125 C 0.421875 -5.691406 0.570312 -6.253906 0.875 -6.640625 C 1.1875 -7.023438 1.691406 -7.21875 2.390625 -7.21875 C 3.078125 -7.21875 3.570312 -7.023438 3.875 -6.640625 C 4.175781 -6.253906 4.328125 -5.691406 4.328125 -4.953125 L 4.328125 -2.234375 C 4.328125 -1.492188 4.175781 -0.921875 3.875 -0.515625 C 3.570312 -0.117188 3.078125 0.078125 2.390625 0.078125 Z M 2.390625 -0.703125 C 2.753906 -0.703125 3 -0.8125 3.125 -1.03125 C 3.257812 -1.25 3.328125 -1.578125 3.328125 -2.015625 L 3.328125 -5.15625 C 3.328125 -5.59375 3.257812 -5.914062 3.125 -6.125 C 3 -6.332031 2.753906 -6.4375 2.390625 -6.4375 C 2.003906 -6.4375 1.75 -6.332031 1.625 -6.125 C 1.5 -5.914062 1.4375 -5.59375 1.4375 -5.15625 L 1.4375 -2.015625 C 1.4375 -1.578125 1.5 -1.25 1.625 -1.03125 C 1.75 -0.8125 2.003906 -0.703125 2.390625 -0.703125 Z M 2.390625 -0.703125 "/></g></g></g><g fill="#000000" fill-opacity="1"><g transform="translate(72.061665, 48.726696)"><g><path d="M 2.40625 0.078125 C 1.90625 0.078125 1.515625 -0.0195312 1.234375 -0.21875 C 0.953125 -0.414062 0.757812 -0.691406 0.65625 -1.046875 C 0.550781 -1.410156 0.5 -1.863281 0.5 -2.40625 L 0.5 -7.15625 L 1.453125 -7.15625 L 1.453125 -2.359375 C 1.453125 -1.816406 1.515625 -1.40625 1.640625 -1.125 C 1.765625 -0.84375 2.019531 -0.703125 2.40625 -0.703125 C 2.78125 -0.703125 3.03125 -0.84375 3.15625 -1.125 C 3.289062 -1.40625 3.359375 -1.816406 3.359375 -2.359375 L 3.359375 -7.15625 L 4.296875 -7.15625 L 4.296875 -2.40625 C 4.296875 -1.863281 4.242188 -1.410156 4.140625 -1.046875 C 4.035156 -0.691406 3.84375 -0.414062 3.5625 -0.21875 C 3.289062 -0.0195312 2.90625 0.078125 2.40625 0.078125 Z M 2.40625 0.078125 "/></g></g></g><g fill="#000000" fill-opacity="1"><g transform="translate(78.334179, 48.726696)"><g><path d="M 0.5625 -7.15625 L 2 -7.15625 C 2.71875 -7.15625 3.242188 -7.003906 3.578125 -6.703125 C 3.921875 -6.410156 4.09375 -5.925781 4.09375 -5.25 C 4.09375 -4.332031 3.800781 -3.773438 3.21875 -3.578125 L 4.234375 0 L 3.265625 0 L 2.328125 -3.359375 L 1.546875 -3.359375 L 1.546875 0 L 0.5625 0 Z M 1.9375 -4.0625 C 2.363281 -4.0625 2.671875 -4.144531 2.859375 -4.3125 C 3.046875 -4.488281 3.140625 -4.800781 3.140625 -5.25 C 3.140625 -5.539062 3.101562 -5.769531 3.03125 -5.9375 C 2.96875 -6.113281 2.851562 -6.238281 2.6875 -6.3125 C 2.53125 -6.394531 2.300781 -6.4375 2 -6.4375 L 1.546875 -6.4375 L 1.546875 -4.0625 Z M 1.9375 -4.0625 "/></g></g></g><g fill="#000000" fill-opacity="1"><g transform="translate(84.394974, 48.726696)"><g/></g></g><g fill="#000000" fill-opacity="1"><g transform="translate(87.897598, 48.726696)"><g><path d="M 2.0625 0.078125 C 1.570312 0.078125 1.191406 -0.0664062 0.921875 -0.359375 C 0.648438 -0.660156 0.515625 -1.050781 0.515625 -1.53125 C 0.515625 -1.945312 0.601562 -2.320312 0.78125 -2.65625 C 0.96875 -2.988281 1.222656 -3.300781 1.546875 -3.59375 L 1.359375 -3.953125 C 1.171875 -4.296875 1.023438 -4.59375 0.921875 -4.84375 C 0.828125 -5.09375 0.78125 -5.351562 0.78125 -5.625 C 0.78125 -6.101562 0.914062 -6.488281 1.1875 -6.78125 C 1.457031 -7.070312 1.828125 -7.21875 2.296875 -7.21875 C 2.742188 -7.21875 3.109375 -7.097656 3.390625 -6.859375 C 3.679688 -6.617188 3.828125 -6.296875 3.828125 -5.890625 C 3.828125 -5.472656 3.695312 -5.070312 3.4375 -4.6875 C 3.175781 -4.300781 2.859375 -3.921875 2.484375 -3.546875 L 3.5625 -1.859375 C 3.726562 -2.179688 3.84375 -2.65625 3.90625 -3.28125 L 4.84375 -3.28125 C 4.84375 -2.957031 4.773438 -2.601562 4.640625 -2.21875 C 4.503906 -1.84375 4.34375 -1.523438 4.15625 -1.265625 C 4.238281 -1.160156 4.34375 -1.070312 4.46875 -1 C 4.59375 -0.9375 4.722656 -0.90625 4.859375 -0.90625 L 4.859375 0.078125 L 4.734375 0.078125 C 4.578125 0.078125 4.429688 0.0390625 4.296875 -0.03125 C 4.160156 -0.101562 4.050781 -0.175781 3.96875 -0.25 C 3.882812 -0.320312 3.757812 -0.445312 3.59375 -0.625 C 3.425781 -0.40625 3.210938 -0.234375 2.953125 -0.109375 C 2.691406 0.015625 2.394531 0.078125 2.0625 0.078125 Z M 2.15625 -4.0625 C 2.351562 -4.300781 2.519531 -4.585938 2.65625 -4.921875 C 2.800781 -5.253906 2.875 -5.578125 2.875 -5.890625 C 2.875 -6.054688 2.820312 -6.1875 2.71875 -6.28125 C 2.613281 -6.382812 2.472656 -6.4375 2.296875 -6.4375 C 2.097656 -6.4375 1.953125 -6.359375 1.859375 -6.203125 C 1.765625 -6.046875 1.71875 -5.851562 1.71875 -5.625 C 1.71875 -5.382812 1.753906 -5.140625 1.828125 -4.890625 C 1.910156 -4.640625 2.019531 -4.363281 2.15625 -4.0625 Z M 2.0625 -0.703125 C 2.414062 -0.703125 2.734375 -0.878906 3.015625 -1.234375 L 1.921875 -2.921875 C 1.785156 -2.742188 1.671875 -2.53125 1.578125 -2.28125 C 1.492188 -2.03125 1.453125 -1.78125 1.453125 -1.53125 C 1.453125 -1.289062 1.5 -1.09375 1.59375 -0.9375 C 1.6875 -0.78125 1.84375 -0.703125 2.0625 -0.703125 Z M 2.0625 -0.703125 "/></g></g></g><g fill="#000000" fill-opacity="1"><g transform="translate(94.725846, 48.726696)"><g/></g></g><g fill="#000000" fill-opacity="1"><g transform="translate(98.22847, 48.726696)"><g><path d="M 1.34375 -6.40625 L 0.125 -6.40625 L 0.125 -7.15625 L 3.515625 -7.15625 L 3.515625 -6.40625 L 2.34375 -6.40625 L 2.34375 0 L 1.34375 0 Z M 1.34375 -6.40625 "/></g></g></g><g fill="#000000" fill-opacity="1"><g transform="translate(103.354217, 48.726696)"><g><path d="M 0.5625 -7.15625 L 2 -7.15625 C 2.71875 -7.15625 3.242188 -7.003906 3.578125 -6.703125 C 3.921875 -6.410156 4.09375 -5.925781 4.09375 -5.25 C 4.09375 -4.332031 3.800781 -3.773438 3.21875 -3.578125 L 4.234375 0 L 3.265625 0 L 2.328125 -3.359375 L 1.546875 -3.359375 L 1.546875 0 L 0.5625 0 Z M 1.9375 -4.0625 C 2.363281 -4.0625 2.671875 -4.144531 2.859375 -4.3125 C 3.046875 -4.488281 3.140625 -4.800781 3.140625 -5.25 C 3.140625 -5.539062 3.101562 -5.769531 3.03125 -5.9375 C 2.96875 -6.113281 2.851562 -6.238281 2.6875 -6.3125 C 2.53125 -6.394531 2.300781 -6.4375 2 -6.4375 L 1.546875 -6.4375 L 1.546875 -4.0625 Z M 1.9375 -4.0625 "/></g></g></g><g fill="#000000" fill-opacity="1"><g transform="translate(109.415009, 48.726696)"><g><path d="M 1.6875 -7.15625 L 2.65625 -7.15625 L 4.171875 0 L 3.234375 0 L 2.90625 -1.796875 L 1.453125 -1.796875 L 1.109375 0 L 0.171875 0 Z M 2.765625 -2.515625 L 2.171875 -5.734375 L 1.578125 -2.515625 Z M 2.765625 -2.515625 "/></g></g></g><g fill="#000000" fill-opacity="1"><g transform="translate(115.237634, 48.726696)"><g><path d="M 0.203125 -7.15625 L 1.140625 -7.15625 L 2.265625 -1.875 L 3.34375 -7.15625 L 4.25 -7.15625 L 2.671875 0 L 1.796875 0 Z M 0.203125 -7.15625 "/></g></g></g><g fill="#000000" fill-opacity="1"><g transform="translate(121.174934, 48.726696)"><g><path d="M 0.5625 -7.15625 L 3.328125 -7.15625 L 3.328125 -6.40625 L 1.546875 -6.40625 L 1.546875 -4.046875 L 3 -4.046875 L 3 -3.34375 L 1.546875 -3.34375 L 1.546875 -0.71875 L 3.34375 -0.71875 L 3.34375 0 L 0.5625 0 Z M 0.5625 -7.15625 "/></g></g></g><g fill="#000000" fill-opacity="1"><g transform="translate(126.247749, 48.726696)"><g><path d="M 0.5625 -7.15625 L 1.546875 -7.15625 L 1.546875 -0.71875 L 3.375 -0.71875 L 3.375 0 L 0.5625 0 Z M 0.5625 -7.15625 "/></g></g></g></svg>