<svg xmlns="http://www.w3.org/2000/svg" xmlns:xlink="http://www.w3.org/1999/xlink" width="200" zoomAndPan="magnify" viewBox="0 0 150 149.999998" height="200" preserveAspectRatio="xMidYMid meet" version="1.0"><path fill="#939090" d="M 137.097656 148.398438 C 135.972656 149.988281 127.464844 145.722656 126.445312 145.207031 C 121.179688 142.570312 117.246094 139.515625 114.574219 137.136719 C 112.109375 138.398438 109.648438 139.660156 107.183594 140.917969 C 107.738281 141.34375 108.289062 141.769531 108.839844 142.195312 C 108.527344 142.601562 108.019531 143.164062 107.265625 143.667969 C 106.371094 144.261719 105.519531 144.511719 104.976562 144.625 C 104.476562 144.179688 103.976562 143.734375 103.476562 143.292969 C 99.148438 145.371094 94.816406 147.449219 90.488281 149.527344 C 90.464844 149.527344 90.441406 149.53125 90.421875 149.53125 C 87.890625 148.671875 85.550781 147.351562 83.144531 146.199219 C 88.574219 142.933594 94 139.671875 99.429688 136.40625 L 98.480469 135.507812 C 98.757812 135.328125 99.035156 135.144531 99.316406 134.964844 C 99.78125 135.191406 100.246094 135.414062 100.710938 135.636719 C 102.652344 134.46875 104.597656 133.300781 106.539062 132.132812 L 85.492188 114.273438 C 83.15625 115.359375 80.816406 116.441406 78.480469 117.523438 C 76.648438 116.84375 74.816406 116.164062 72.984375 115.484375 L 81.8125 109.988281 C 81.234375 109.339844 80.652344 108.691406 80.074219 108.046875 C 80.210938 107.859375 80.34375 107.675781 80.476562 107.492188 C 81.253906 107.769531 82.03125 108.046875 82.808594 108.324219 C 83.210938 105.105469 83.613281 101.882812 84.015625 98.664062 C 85.390625 100.011719 86.765625 101.355469 88.140625 102.703125 C 88.089844 105.394531 88.039062 108.085938 87.988281 110.777344 L 111.660156 124.828125 L 112.777344 118.839844 L 111.847656 117.9375 L 112 117.339844 C 112.25 117.316406 112.5 117.292969 112.75 117.269531 C 113.746094 110.359375 114.742188 103.453125 115.734375 96.542969 C 116.484375 97.195312 117.074219 97.753906 117.46875 98.148438 C 118.746094 99.429688 119.96875 100.777344 121.3125 101.992188 C 121.503906 102.164062 121.695312 102.332031 121.890625 102.496094 C 121.625 107.753906 121.355469 113.011719 121.089844 118.269531 C 121.671875 118.605469 122.253906 118.9375 122.839844 119.269531 C 122.941406 119.804688 123.035156 120.664062 122.839844 121.683594 C 122.679688 122.507812 122.390625 123.148438 122.152344 123.578125 C 121.507812 123.351562 120.859375 123.121094 120.214844 122.890625 C 119.929688 125.523438 119.644531 128.15625 119.359375 130.789062 C 122.769531 132.820312 127.277344 135.953125 131.773438 140.628906 C 133.65625 142.589844 138.003906 147.109375 137.097656 148.398438 Z M 137.097656 148.398438 " fill-opacity="1" fill-rule="nonzero"/><path fill="#939090" d="M 19.300781 45.933594 C 15.34375 36.6875 12.003906 24.839844 14.261719 14.816406 C 15.1875 10.289062 17.355469 5.65625 21.324219 3.03125 C 25.148438 0.429688 30.0625 0.0117188 34.480469 0.996094 C 28.707031 0.625 22.773438 2.320312 19.601562 7.453125 C 18.101562 9.816406 17.367188 12.566406 16.972656 15.320312 C 15.351562 25.859375 20.207031 38.839844 24.894531 48.207031 C 29.785156 57.929688 36.019531 66.957031 43.0625 75.261719 C 49.449219 82.785156 56.523438 89.675781 64.15625 95.953125 C 68.414062 99.460938 72.867188 102.757812 77.398438 105.910156 C 52.476562 93.660156 30.441406 71.457031 19.300781 45.933594 Z M 19.300781 45.933594 " fill-opacity="1" fill-rule="nonzero"/></svg>