<svg xmlns="http://www.w3.org/2000/svg" xmlns:xlink="http://www.w3.org/1999/xlink" width="200" zoomAndPan="magnify" viewBox="0 0 150 149.999998" height="200" preserveAspectRatio="xMidYMid meet" version="1.0"><defs><clipPath id="d3fc82c573"><path d="M 12.003906 96 L 78 96 L 78 150 L 12.003906 150 Z M 12.003906 96 " clip-rule="nonzero"/></clipPath></defs><g clip-path="url(#d3fc82c573)"><path fill="#939090" d="M 12.898438 148.398438 C 14.019531 149.988281 22.53125 145.722656 23.550781 145.207031 C 28.816406 142.570312 32.75 139.515625 35.421875 137.136719 C 37.882812 138.398438 40.347656 139.660156 42.8125 140.917969 C 42.257812 141.34375 41.707031 141.769531 41.152344 142.195312 C 41.464844 142.601562 41.972656 143.164062 42.726562 143.667969 C 43.621094 144.261719 44.476562 144.511719 45.019531 144.625 C 45.519531 144.179688 46.019531 143.734375 46.515625 143.292969 C 50.847656 145.371094 55.175781 147.449219 59.507812 149.527344 C 59.53125 149.527344 59.550781 149.53125 59.574219 149.53125 C 62.105469 148.671875 64.441406 147.351562 66.851562 146.199219 C 61.421875 142.933594 55.992188 139.671875 50.566406 136.40625 L 51.511719 135.507812 C 51.234375 135.328125 50.957031 135.144531 50.679688 134.964844 C 50.214844 135.191406 49.75 135.414062 49.285156 135.636719 C 47.339844 134.46875 45.398438 133.300781 43.457031 132.132812 L 64.503906 114.273438 C 66.839844 115.359375 69.179688 116.441406 71.515625 117.523438 C 73.347656 116.84375 75.179688 116.164062 77.011719 115.484375 L 68.183594 109.988281 C 68.761719 109.339844 69.339844 108.691406 69.917969 108.046875 C 69.785156 107.859375 69.652344 107.675781 69.515625 107.492188 C 68.738281 107.769531 67.960938 108.046875 67.183594 108.324219 C 66.78125 105.105469 66.378906 101.882812 65.976562 98.664062 C 64.605469 100.011719 63.230469 101.355469 61.855469 102.703125 C 61.90625 105.394531 61.957031 108.085938 62.003906 110.777344 L 38.335938 124.828125 L 37.21875 118.839844 L 38.148438 117.9375 L 37.996094 117.339844 C 37.746094 117.316406 37.496094 117.292969 37.246094 117.269531 C 36.25 110.359375 35.253906 103.453125 34.257812 96.542969 C 33.511719 97.195312 32.917969 97.753906 32.527344 98.148438 C 31.25 99.429688 30.027344 100.777344 28.683594 101.992188 C 28.492188 102.164062 28.300781 102.332031 28.105469 102.496094 C 28.371094 107.753906 28.640625 113.011719 28.90625 118.269531 C 28.324219 118.605469 27.738281 118.9375 27.15625 119.269531 C 27.054688 119.804688 26.960938 120.664062 27.15625 121.683594 C 27.316406 122.507812 27.605469 123.148438 27.84375 123.578125 C 28.488281 123.351562 29.132812 123.121094 29.78125 122.890625 C 30.066406 125.523438 30.351562 128.15625 30.636719 130.789062 C 27.226562 132.820312 22.71875 135.953125 18.222656 140.628906 C 16.335938 142.589844 11.992188 147.109375 12.898438 148.398438 Z M 12.898438 148.398438 " fill-opacity="1" fill-rule="nonzero"/></g><path fill="#939090" d="M 130.695312 45.933594 C 134.652344 36.6875 137.992188 24.839844 135.730469 14.816406 C 134.808594 10.289062 132.640625 5.65625 128.671875 3.03125 C 124.84375 0.429688 119.933594 0.0117188 115.515625 0.996094 C 121.289062 0.625 127.222656 2.320312 130.394531 7.453125 C 131.890625 9.816406 132.628906 12.566406 133.023438 15.320312 C 134.644531 25.859375 129.789062 38.839844 125.101562 48.207031 C 120.207031 57.929688 113.976562 66.957031 106.933594 75.261719 C 100.546875 82.785156 93.472656 89.675781 85.839844 95.953125 C 81.582031 99.460938 77.128906 102.757812 72.597656 105.910156 C 97.515625 93.660156 119.554688 71.457031 130.695312 45.933594 Z M 130.695312 45.933594 " fill-opacity="1" fill-rule="nonzero"/></svg>